<?xml version="1.0" encoding="utf-8"?>
<!-- Generator: Adobe Illustrator 19.0.0, SVG Export Plug-In . SVG Version: 6.00 Build 0)  -->
<svg version="1.1" id="Layer_1" xmlns="http://www.w3.org/2000/svg" xmlns:xlink="http://www.w3.org/1999/xlink" x="0px" y="0px"
	 viewBox="-287 186.8 420 188.2" style="enable-background:new -287 186.8 420 188.2;" xml:space="preserve">
<style type="text/css">
	.st0{opacity:0.5;fill:#230442;enable-background:new    ;}
	.st1{opacity:0.5;fill:#324859;enable-background:new    ;}
	.st2{opacity:0.5;fill:#302746;enable-background:new    ;}
	.st3{opacity:0.1;fill:#FFFFFF;enable-background:new    ;}
	.st4{opacity:0.2;fill:#140515;enable-background:new    ;}
</style>
<g id="XMLID_427_">
	<polygon id="XMLID_438_" class="st0" points="-268.3,336.2 -287,336.2 -287,286 -268.3,301 	"/>
	<polygon id="XMLID_437_" class="st1" points="-238.1,344.9 -274.8,344.9 -274.8,258.6 -238.1,290.3 	"/>
	<polygon id="XMLID_436_" class="st2" points="-243.9,360.7 -253.9,360.7 -253.9,208.4 -243.9,217.7 	"/>
	<polygon id="XMLID_432_" class="st2" points="96.7,339.1 86.6,339.1 86.6,186.8 96.7,196.1 	"/>
	<polygon id="XMLID_431_" class="st3" points="-93.7,375 -111.7,375 -111.7,286 -93.7,301.8 	"/>
	<polygon id="XMLID_430_" class="st1" points="78,322.6 60,322.6 60,233.5 78,249.3 	"/>
	<polygon id="XMLID_429_" class="st4" points="-87.3,359.2 -100.2,359.2 -100.2,268.7 -87.3,279.5 	"/>
	<polygon id="XMLID_428_" class="st3" points="66.5,342.7 53.6,342.7 53.6,252.2 66.5,263 	"/>
</g>
</svg>
