<?xml version="1.0" encoding="utf-8"?>
<!-- Generator: Adobe Illustrator 19.0.0, SVG Export Plug-In . SVG Version: 6.00 Build 0)  -->
<svg version="1.1" id="Layer_1" xmlns="http://www.w3.org/2000/svg" xmlns:xlink="http://www.w3.org/1999/xlink" x="0px" y="0px"
	 viewBox="0 0 84 84" style="enable-background:new 0 0 84 84;" xml:space="preserve">
<style type="text/css">
	.st0{fill:#FFFFFF;}
</style>
<g id="XMLID_515_">
	<path id="XMLID_518_" class="st0" d="M42,0C18.8,0,0,18.8,0,42c0,23.2,18.8,42,42,42c23.2,0,42-18.8,42-42C84,18.8,65.2,0,42,0z
		 M30.4,62.6c-3.4,0-6.7,0-10.1,0c0-10.2,0-20.3,0-30.6c3.4,0,6.7,0,10.1,0C30.4,42.2,30.4,52.4,30.4,62.6z M31,23.7
		c-0.4,2.1-1.9,3.4-4,4c-0.6,0.1-1.1,0.2-1.7,0.2c-2,0-3.7-0.7-4.8-2.5c-1.7-2.7-0.8-7.1,3.4-8c1.8-0.4,3.5-0.2,5,0.9
		C30.8,19.6,31.4,21.5,31,23.7z M67.1,62.6c-3.4,0-6.7,0-10.1,0c0-0.1,0-0.3,0-0.5c0-5.3,0-10.6,0-15.9c0-1.3-0.1-2.5-0.6-3.7
		c-0.8-2.1-2.2-3.1-4.4-3.2c-3.2-0.2-5.1,2.4-5.6,4.3c-0.1,0.6-0.2,1.2-0.2,1.8c0,5.5,0,11,0,16.5c0,0.2,0,0.4,0,0.6
		c-3.4,0-6.8,0-10.1,0c0-10.2,0-20.4,0-30.6c0.1,0,0.3,0,0.4,0c3.1,0,6.2,0,9.3,0c0.4,0,0.5,0.1,0.5,0.5c0,1.1,0,2.2,0,3.3
		c0,0.1,0,0.3,0,0.5c0.5-0.6,0.9-1.2,1.4-1.7c1.8-2,4.1-3,6.7-3.2c2.3-0.1,4.5,0.1,6.6,1.2c2.4,1.2,4,3.1,5,5.6c0.8,2,1.1,4,1.1,6.1
		c0,6,0,12,0,18C67.1,62.4,67.1,62.5,67.1,62.6z"/>
</g>
</svg>
