<?xml version="1.0" encoding="utf-8"?>
<!-- Generator: Adobe Illustrator 19.0.0, SVG Export Plug-In . SVG Version: 6.00 Build 0)  -->
<svg version="1.1" id="Layer_1" xmlns="http://www.w3.org/2000/svg" xmlns:xlink="http://www.w3.org/1999/xlink" x="0px" y="0px"
	 viewBox="0 0 1035.6 737.9" style="enable-background:new 0 0 1035.6 737.9;" xml:space="preserve">
<style type="text/css">
	.st0{opacity:0.8;}
	.st1{clip-path:url(#XMLID_55_);fill:#5C4E6B;}
	.st2{fill:#5C4E6B;}
	.st3{fill:#6D718F;}
	.st4{opacity:0.5;}
	.st5{fill:#431636;}
	.st6{opacity:0.48;fill:#FFB9BB;}
	.st7{fill:#823A5D;}
	.st8{opacity:0.48;fill:#170017;}
	.st9{opacity:0.4;}
	.st10{clip-path:url(#XMLID_56_);fill:#5C4E6B;}
	.st11{clip-path:url(#XMLID_56_);fill:#823A5D;}
	.st12{clip-path:url(#XMLID_56_);fill:#431636;}
	.st13{clip-path:url(#XMLID_56_);}
	.st14{opacity:0.48;clip-path:url(#XMLID_56_);fill:#FFB9BB;}
	.st15{opacity:0.48;clip-path:url(#XMLID_56_);fill:#170017;}
	.st16{clip-path:url(#XMLID_56_);fill:#6D718F;}
	.st17{fill:#337A6F;}
	.st18{opacity:0.58;fill:#9AB9C0;}
	.st19{fill:#73C7BA;}
	.st20{fill:#213546;}
	.st21{fill:#FFFFFF;}
	.st22{opacity:0.2;fill:url(#XMLID_57_);}
	.st23{opacity:0.2;fill:url(#XMLID_58_);}
	.st24{fill:#22544D;}
	.st25{fill:#B7A4BF;}
	.st26{opacity:0.68;fill:#1A3145;}
</style>
<g id="XMLID_472_">
	<g id="XMLID_3463_" class="st0">
		<g id="XMLID_3467_">
			<defs>
				<path id="XMLID_3468_" d="M79.5,38.9C74.3,50.3,78.9,63.1,90,67.6c11.1,4.4,24.3-1.2,29.6-12.6c5.3-11.4,0.6-24.2-10.5-28.6
					C98.1,21.9,84.8,27.5,79.5,38.9z"/>
			</defs>
			<use xlink:href="#XMLID_3468_"  style="overflow:visible;fill:#431636;"/>
			<clipPath id="XMLID_55_">
				<use xlink:href="#XMLID_3468_"  style="overflow:visible;"/>
			</clipPath>
			<path id="XMLID_3469_" class="st1" d="M117.8,13.4C101.5,13.8,89.3,27,90.5,43c1.3,16,15.5,28.6,31.8,28.2
				c16.3-0.4,28.5-13.7,27.3-29.7C148.4,25.6,134.1,12.9,117.8,13.4z"/>
		</g>
		<g id="XMLID_3465_">
			<path id="XMLID_3466_" class="st2" d="M121.5,45.2c0,0.5,0.2,0.8,0.1,1.4c18.3,5.6,19,10.3,18.8,11.6c0,0.2-0.1,0.5-0.4,0.7
				c-4.9,4.3-26.7,1-43.7-3.3c-9.6-2.4-19.1-5.4-26.1-8.5c-11.5-5.1-12.3-7.9-12.2-8.4c0.1-0.5,0.9-3,8-2.9
				c3.5,0.1,8.5,0.9,14.1,1.8c0.3-0.7,0.2-0.9,0.5-1.5c-20-3-23.4-0.5-23.7,2.3c-0.1,1.1-0.5,5,12.8,10.9c7,3.1,16.4,6.3,26.1,8.8
				c10.5,2.7,26,4.9,35.8,4.5c3.9-0.1,7-0.9,8.4-2.2c0.6-0.5,1-1.2,1.1-2C141.8,53.9,135.4,49.5,121.5,45.2z"/>
		</g>
		<path id="XMLID_3464_" class="st3" d="M118,47.5c3.3-2.9,2-9.9-2.9-15.5c-4.8-5.6-11.4-7.7-14.6-4.8c-3.3,2.9-2,9.9,2.9,15.5
			C108.2,48.3,114.8,50.5,118,47.5z"/>
	</g>
	<g id="planet_5_" class="st4">
		<circle id="XMLID_3462_" class="st2" cx="856" cy="23" r="23"/>
		<circle id="XMLID_3461_" class="st5" cx="849.6" cy="16.3" r="4.7"/>
		<path id="XMLID_3460_" class="st6" d="M853.2,13.2c0.7,0.8,1.1,1.9,1.1,3c0,2.6-2.1,4.7-4.7,4.7c-1.1,0-2.2-0.4-3-1.1
			c0.9,1,2.2,1.7,3.6,1.7c2.6,0,4.7-2.1,4.7-4.7C854.8,15.4,854.2,14.1,853.2,13.2z"/>
		<path id="XMLID_3459_" class="st7" d="M849.6,11.6c-2.6,0-4.7,2.1-4.7,4.7c0,1.5,0.7,2.9,1.9,3.7c-0.7-0.8-1.2-1.9-1.2-3.1
			c0-2.6,2.1-4.7,4.7-4.7c1.1,0,2,0.4,2.8,1C852.2,12.2,851,11.6,849.6,11.6z"/>
		<path id="XMLID_3458_" class="st7" d="M852.5,40c-2,0-3.6,1.6-3.6,3.6c0,0.5,0.1,0.9,0.2,1.3c2,0.6,4,1,6.2,1
			c0.5-0.6,0.9-1.4,0.9-2.3C856.1,41.7,854.5,40,852.5,40z"/>
		<path id="XMLID_3457_" class="st5" d="M852.5,40c-2,0-3.6,1.6-3.6,3.6c0,0.5,0.1,0.9,0.2,1.3c2,0.6,4,1,6.2,1
			c0.5-0.6,0.9-1.4,0.9-2.3C856.1,41.7,854.5,40,852.5,40z"/>
		<g id="XMLID_3454_">
			<path id="XMLID_3456_" class="st6" d="M849.3,45c1.9,0.6,3.9,0.9,5.9,1C853.2,45.9,851.2,45.6,849.3,45
				C849.3,45,849.3,45,849.3,45z"/>
			<path id="XMLID_3455_" class="st6" d="M856.1,43.7c0,0.9-0.3,1.7-0.9,2.3c0.2,0,0.4,0,0.7,0c0.3-0.5,0.5-1.2,0.5-1.9
				c0-0.8-0.3-1.6-0.8-2.2C855.9,42.4,856.1,43,856.1,43.7z"/>
		</g>
		<path id="XMLID_3453_" class="st7" d="M852.5,40c-2,0-3.6,1.6-3.6,3.6c0,0.5,0.1,0.9,0.2,1.3c0.1,0,0.3,0.1,0.5,0.1
			c-0.1-0.3-0.1-0.5-0.1-0.8c0-2,1.6-3.6,3.6-3.6c0.9,0,1.6,0.3,2.2,0.8C854.7,40.6,853.6,40,852.5,40z"/>
		<circle id="XMLID_3452_" class="st5" cx="865.3" cy="29.6" r="6.7"/>
		<path id="XMLID_3451_" class="st6" d="M870.3,25.2c1,1.2,1.7,2.7,1.7,4.4c0,3.7-3,6.7-6.7,6.7c-1.7,0-3.2-0.6-4.4-1.7
			c1.2,1.4,3,2.3,5,2.3c3.7,0,6.7-3,6.7-6.7C872.6,28.2,871.7,26.4,870.3,25.2z"/>
		<path id="XMLID_3450_" class="st7" d="M865.3,22.9c-3.7,0-6.7,3-6.7,6.7c0,2,0.9,3.8,2.3,5c-1-1.2-1.7-2.7-1.7-4.4
			c0-3.7,3-6.7,6.7-6.7c1.7,0,3.2,0.6,4.4,1.7C869.1,23.8,867.3,22.9,865.3,22.9z"/>
		<path id="XMLID_3449_" class="st5" d="M863.3,1.2c-1.2,1.2-1.9,2.9-1.9,4.7c0,3.7,3,6.7,6.7,6.7c2.6,0,4.9-1.6,6-3.8
			C871.3,5.3,867.6,2.6,863.3,1.2z"/>
		<path id="XMLID_3448_" class="st7" d="M862,5.9c0-1.7,0.7-3.3,1.8-4.5c-0.1-0.1-0.3-0.1-0.4-0.2c-1.2,1.2-1.9,2.9-1.9,4.7
			c0,3.7,3,6.7,6.7,6.7c0.1,0,0.2,0,0.3,0C864.8,12.4,862,9.5,862,5.9z"/>
		<path id="XMLID_3447_" class="st6" d="M874.1,8.7c-1.1,2.2-3.4,3.8-6,3.8c-1.7,0-3.2-0.6-4.4-1.7c1.2,1.4,3,2.3,5,2.3
			c2.6,0,4.9-1.6,6-3.8c-0.7-0.9-1.5-1.7-2.3-2.5C872.9,7.4,873.5,8.1,874.1,8.7z"/>
		<path id="XMLID_3446_" class="st6" d="M833.7,28.8c0-0.1-0.1-0.3-0.1-0.4C833.7,28.5,833.7,28.6,833.7,28.8z"/>
		<path id="XMLID_3445_" class="st6" d="M834.2,30.2c-0.1-0.2-0.1-0.4-0.2-0.6C834,29.8,834.1,30,834.2,30.2z"/>
		<path id="XMLID_3444_" class="st6" d="M833.9,29.3c-0.1-0.2-0.1-0.4-0.1-0.5C833.8,29,833.8,29.1,833.9,29.3z"/>
		<path id="XMLID_3443_" class="st6" d="M834,29.6c0-0.1-0.1-0.2-0.1-0.3C833.9,29.4,834,29.5,834,29.6z"/>
		<path id="XMLID_3442_" class="st6" d="M834.3,30.5c0-0.1-0.1-0.2-0.1-0.2C834.2,30.3,834.2,30.4,834.3,30.5z"/>
		<path id="XMLID_3441_" class="st6" d="M834.3,30.6C834.3,30.6,834.3,30.6,834.3,30.6c0-0.1,0-0.1-0.1-0.2
			C834.3,30.5,834.3,30.6,834.3,30.6z"/>
		<path id="XMLID_3440_" class="st6" d="M833.4,27.1c0-0.2-0.1-0.4-0.1-0.6C833.3,26.7,833.3,26.9,833.4,27.1z"/>
		<path id="XMLID_3439_" class="st6" d="M833.3,26.5c0-0.1,0-0.1,0-0.2C833.3,26.4,833.3,26.4,833.3,26.5z"/>
		<path id="XMLID_3438_" class="st6" d="M833,23.8c0,0.9,0.1,1.7,0.2,2.5C833.1,25.5,833.1,24.6,833,23.8L833,23.8z"/>
		<path id="XMLID_3437_" class="st6" d="M834.3,30.6c0.1,0.2,0.2,0.4,0.2,0.7c1.2,0,2.3-0.6,3-1.4c-0.7,0.5-1.5,0.9-2.5,0.9
			C834.8,30.7,834.6,30.7,834.3,30.6z"/>
		<path id="XMLID_3436_" class="st6" d="M833.4,27.4c0-0.1,0-0.2-0.1-0.3C833.4,27.2,833.4,27.3,833.4,27.4z"/>
		<path id="XMLID_3435_" class="st6" d="M833.6,28.4c0-0.1-0.1-0.3-0.1-0.4C833.6,28.1,833.6,28.2,833.6,28.4z"/>
		<path id="XMLID_3434_" class="st6" d="M833.5,27.9c0-0.2-0.1-0.3-0.1-0.5C833.5,27.6,833.5,27.8,833.5,27.9z"/>
		<path id="XMLID_3433_" class="st5" d="M835.1,22.9c-0.8,0-1.4,0.2-2,0.6c0.1,2.5,0.5,4.9,1.3,7.2c0.2,0,0.5,0.1,0.8,0.1
			c2.2,0,3.9-1.7,3.9-3.9S837.2,22.9,835.1,22.9z"/>
		<path id="XMLID_3432_" class="st7" d="M835.1,22.9c-0.8,0-1.4,0.2-2,0.6c0,0.1,0,0.2,0,0.3c0.4-0.2,0.9-0.3,1.4-0.3
			c2.2,0,3.9,1.7,3.9,3.9c0,0.9-0.3,1.8-0.9,2.5c0.9-0.7,1.5-1.8,1.5-3C839,24.7,837.2,22.9,835.1,22.9z"/>
		<circle id="XMLID_3431_" class="st7" cx="847.3" cy="31.8" r="2.3"/>
		<circle id="XMLID_3430_" class="st5" cx="847.3" cy="31.8" r="2.3"/>
		<path id="XMLID_3429_" class="st6" d="M849,30.3c0.4,0.4,0.6,0.9,0.6,1.5c0,1.2-1,2.3-2.3,2.3c-0.5,0-0.9-0.2-1.3-0.4
			c0.4,0.5,1,0.8,1.7,0.8c1.2,0,2.3-1,2.3-2.3C849.9,31.4,849.6,30.7,849,30.3z"/>
		<path id="XMLID_3428_" class="st7" d="M845,31.8c0,0.9,0.5,1.7,1.3,2c-0.5-0.4-0.8-1-0.8-1.7c0-1.2,1-2.3,2.3-2.3
			c0.4,0,0.7,0.1,1,0.2c-0.4-0.3-0.9-0.5-1.4-0.5C846.1,29.6,845,30.6,845,31.8z"/>
		<path id="XMLID_3427_" class="st8" d="M876.5,19.9c0,12.7-10.3,23-23,23c-6.5,0-12.3-2.7-16.5-7C841.1,42,848.1,46,856,46
			c12.7,0,23-10.3,23-23c0-6.2-2.5-11.9-6.5-16C875,10.7,876.5,15.1,876.5,19.9z"/>
		<path id="XMLID_3426_" class="st3" d="M833,23c0,7.5,3.6,14.1,9.1,18.3c-4.4-4.2-7.1-10.1-7.1-16.6c0-12.7,10.3-23,23-23
			c5.2,0,10,1.7,13.9,4.7c-4.1-4-9.8-6.4-15.9-6.4C843.3,0,833,10.3,833,23z"/>
	</g>
	<g id="XMLID_22_" class="st9">
		<defs>
			<path id="XMLID_3181_" class="st9" d="M751.4,219.6c7,6.7,9.3,17.9,5.6,26.9c-0.5,1.2-1.1,2.4-2,3.5c-2.3,3-5.9,4.6-9.4,5.9
				c-3.9,1.5-7.9,2.6-12.1,2.9c-4.2,0.3-8.4-0.3-12.1-2.1c0,0,0.6,1.8,0.8,2c0.3,0.5,0.8,1,1.1,1.6c0.8,1.2,1.7,2.4,2.7,3.5
				c2,2.2,4.4,4.1,7,5.5c5.3,2.9,11.5,3.9,17.5,2.9c14.5-2.6,24.2-16.5,21.7-31C770.2,230.5,761.9,221.7,751.4,219.6z"/>
		</defs>
		<clipPath id="XMLID_56_">
			<use xlink:href="#XMLID_3181_"  style="overflow:visible;"/>
		</clipPath>
		<path id="XMLID_3331_" class="st10" d="M751.4,219.6c7,6.7,9.3,17.9,5.6,26.9c-0.5,1.2-1.1,2.4-2,3.5c-2.3,3-5.9,4.6-9.4,5.9
			c-3.9,1.5-7.9,2.6-12.1,2.9c-4.2,0.3-8.4-0.3-12.1-2.1c0,0,0.6,1.8,0.8,2c0.3,0.5,0.8,1,1.1,1.6c0.8,1.2,1.7,2.4,2.7,3.5
			c2,2.2,4.4,4.1,7,5.5c5.3,2.9,11.5,3.9,17.5,2.9c14.5-2.6,24.2-16.5,21.7-31C770.2,230.5,761.9,221.7,751.4,219.6z"/>
		<path id="XMLID_3330_" class="st11" d="M745.2,265.9c-2.3,0.4-3.8,2.6-3.4,4.9c0.1,0.5,0.3,1,0.5,1.4c2.4,0.3,4.8,0.3,7.3-0.1
			c0.5-0.8,0.7-1.8,0.5-2.8C749.6,267,747.4,265.5,745.2,265.9z"/>
		<path id="XMLID_3329_" class="st12" d="M745.2,265.9c-2.3,0.4-3.8,2.6-3.4,4.9c0.1,0.5,0.3,1,0.5,1.4c2.4,0.3,4.8,0.3,7.3-0.1
			c0.5-0.8,0.7-1.8,0.5-2.8C749.6,267,747.4,265.5,745.2,265.9z"/>
		<g id="XMLID_3326_" class="st13">
			<path id="XMLID_3328_" class="st6" d="M742.5,272.2c2.3,0.3,4.6,0.3,7-0.1C747.2,272.5,744.8,272.5,742.5,272.2
				C742.5,272.2,742.5,272.2,742.5,272.2z"/>
			<path id="XMLID_3327_" class="st6" d="M750,269.3c0.2,1,0,2-0.5,2.8c0.3,0,0.5-0.1,0.8-0.1c0.3-0.7,0.3-1.4,0.2-2.2
				c-0.2-1-0.7-1.8-1.3-2.4C749.6,268,749.9,268.6,750,269.3z"/>
		</g>
		<path id="XMLID_3325_" class="st11" d="M745.2,265.9c-2.3,0.4-3.8,2.6-3.4,4.9c0.1,0.5,0.3,1,0.5,1.4c0.2,0,0.4,0,0.5,0.1
			c-0.1-0.3-0.2-0.6-0.3-0.9c-0.4-2.3,1.1-4.5,3.4-4.9c1-0.2,1.9,0,2.7,0.4C747.8,266.1,746.5,265.7,745.2,265.9z"/>
		<path id="XMLID_3324_" class="st12" d="M749.7,219.2c-1.1,1.6-1.6,3.7-1.3,5.7c0.7,4.2,4.8,7,9,6.3c3-0.5,5.3-2.8,6.1-5.6
			C759.6,222.3,754.9,220,749.7,219.2z"/>
		<path id="XMLID_3323_" class="st11" d="M749.1,224.9c-0.4-2,0.1-3.9,1.1-5.5c-0.2,0-0.4-0.1-0.5-0.1c-1.1,1.6-1.6,3.7-1.3,5.7
			c0.7,4.2,4.8,7,9,6.3c0.1,0,0.3-0.1,0.4-0.1C753.7,231.7,749.8,229,749.1,224.9z"/>
		<path id="XMLID_3321_" class="st14" d="M763.5,225.7c-0.8,2.8-3.1,5-6.1,5.6c-1.9,0.3-3.8-0.1-5.4-1c1.7,1.3,3.9,2,6.2,1.6
			c3-0.5,5.3-2.8,6.1-5.6c-1-0.9-2-1.7-3.1-2.4C762,224.4,762.7,225,763.5,225.7z"/>
		<g id="XMLID_3315_" class="st13">
			<circle id="XMLID_3320_" class="st7" cx="755.2" cy="256.1" r="4.2"/>
			<g id="XMLID_3316_">
				<circle id="XMLID_3319_" class="st5" cx="755.2" cy="256.1" r="4.2"/>
				<path id="XMLID_3318_" class="st6" d="M757.8,252.9c0.8,0.6,1.3,1.5,1.5,2.5c0.4,2.3-1.1,4.4-3.4,4.8c-0.9,0.2-1.7,0-2.5-0.3
					c0.9,0.7,2.1,1.1,3.3,0.8c2.3-0.4,3.8-2.6,3.4-4.8C759.9,254.5,759,253.4,757.8,252.9z"/>
				<path id="XMLID_3317_" class="st7" d="M751.1,256.8c0.3,1.6,1.5,2.8,3,3.3c-1-0.6-1.8-1.6-2.1-2.9c-0.4-2.3,1.1-4.4,3.4-4.8
					c0.6-0.1,1.3-0.1,1.9,0.1c-0.8-0.5-1.8-0.7-2.8-0.5C752.2,252.4,750.7,254.6,751.1,256.8z"/>
			</g>
		</g>
		<g id="XMLID_3183_" class="st13">
			<circle id="XMLID_3314_" class="st7" cx="759.4" cy="240.7" r="4.2"/>
			<g id="XMLID_3184_">
				<circle id="XMLID_3313_" class="st5" cx="759.4" cy="240.7" r="4.2"/>
				<path id="XMLID_3311_" class="st6" d="M762,237.5c0.8,0.6,1.3,1.5,1.5,2.5c0.4,2.3-1.1,4.4-3.4,4.8c-0.9,0.2-1.7,0-2.5-0.3
					c0.9,0.7,2.1,1.1,3.3,0.8c2.3-0.4,3.8-2.6,3.4-4.8C764.1,239.1,763.2,238,762,237.5z"/>
				<path id="XMLID_3185_" class="st7" d="M755.3,241.5c0.3,1.6,1.5,2.8,3,3.3c-1-0.6-1.8-1.6-2.1-2.9c-0.4-2.3,1.1-4.4,3.4-4.8
					c0.6-0.1,1.3-0.1,1.9,0.1c-0.8-0.5-1.8-0.7-2.8-0.5C756.4,237,754.9,239.2,755.3,241.5z"/>
			</g>
		</g>
		<path id="XMLID_3182_" class="st15" d="M768.5,237.9c2.6,14.5-7.1,28.4-21.7,31c-7.4,1.3-14.7-0.6-20.3-4.7
			c6,6.2,14.8,9.4,23.9,7.7c14.5-2.6,24.2-16.5,21.7-31c-1.3-7.1-5.2-13.1-10.7-17C765,227.7,767.5,232.5,768.5,237.9z"/>
		<path id="XMLID_3179_" class="st16" d="M750.5,215.2l3.1,2.9c0,0,16.3,21,0.4,36.4s-37.5,3.4-37.6-6.9
			C716.3,237.2,750.5,215.2,750.5,215.2z"/>
	</g>
	<g id="XMLID_3812_">
		<g id="XMLID_3814_">
			<path id="XMLID_3825_" class="st17" d="M276.8,457.2c0,0-40.7,9.5-66,18.4c0,0,6.6,3.6,25.7-0.7
				C255.9,470.6,271.1,461.9,276.8,457.2z"/>
			<path id="XMLID_3824_" class="st18" d="M270,458.8c0,0-7.5-20.9-19.9-23c-21.3-3.7-30.6,21.4-30.9,37.9
				C219.2,473.7,249.2,469.4,270,458.8z"/>
			<g id="XMLID_3822_">
				<path id="XMLID_3823_" class="st19" d="M211.3,475.9c-0.4,0-0.6,0-0.6,0l0-0.5c0.1,0,12.7,0.3,30.8-4.4
					c18.1-4.7,35-13.9,35.1-14l0.2,0.4c-0.2,0.1-17.1,9.3-35.2,14C225.8,475.6,214.1,475.9,211.3,475.9z"/>
			</g>
			<path id="XMLID_3817_" class="st20" d="M266.9,459.7c-0.2-0.3-2.5-2.7-4.2-2.7c-0.9,0-1.9,0.4-2.6,0.8c0.2-1.1,0.3-2.3,0.3-2.3
				l-0.6-0.2l-0.4,2.6l-0.7,0.3l-0.1-0.1l0-1.3l0.3,0l0.2-1l-0.2-0.2l-0.2,0l0-0.9l-0.7,0.1l0.1,1.1l-0.2,0.1l-2.6-0.3l-2.2-1.5l0,0
				l-0.3-0.4l0.3-0.5h1.3l-0.4-1.1l0.5-0.2l-0.6-0.9l0.1-1c0,0,0.8-0.4,0.6-1.3c-0.2-0.9-2.1-0.9-3.2-0.3c-1.2,0.7-0.6,1.5-0.6,1.5
				s-1.3-0.5-1.3,0.5c0,1.6,1.6,2.5,1.6,2.5c-3.2,0.7-3.5,3.9-3.5,3.9s-3.6-3.9-5.8-3.4c-3,0.7,2.4,8.1,4.8,11
				c-0.5,0.1-0.9,0.3-1.4,0.4c-2,0.6-4.2,1.2-6.4,1.9c-1.2-1.6-5.4-6.7-8.7-6.2c-2.8,0.5,1.4,5.7,3.2,7.9
				c-7.6,2.4-14.6,4.8-14.6,4.8s15.5-2.2,29.6-6.2c14-4,21.4-8.4,21.4-8.4S268.8,459.2,266.9,459.7z M257.7,456.8l0.5,0l0.1,1.4
				l-2.6-0.6l-1.2-0.9l0.7,0.3L257.7,456.8z M252.1,457.1l3,1.4l-0.4,0l-3.5,1.1C251.2,458.5,252.1,457.1,252.1,457.1z M256.9,458.9
				l1.7,0.2c0.3,0.4,0.6,0.9,0.9,0.8c0.1-0.1,0.2-0.3,0.3-0.6l0.4,0.1l0.2-1.2l-0.4,0.1c0.6-0.4,1.6-0.8,2.7-0.6
				c1.2,0.2,1.8,2.1,2,2.6c-2.2,0.5-5,1.2-8,1.9L256.9,458.9z"/>
			<g id="XMLID_3815_">
				<path id="XMLID_3816_" class="st21" d="M219.2,473.6l-0.5-0.1c1.7-13.3,5.1-23.3,10-29.7c4.2-5.5,9.7-8.5,16.3-9.1
					c4-0.3,8.3,1.4,12.7,5.3c6.8,5.9,12.1,15.6,12.3,18.9l-0.5,0c-0.2-2.9-5-12.4-12.1-18.6c-4.3-3.7-8.4-5.5-12.3-5.1
					c-6.6,0.5-11.8,3.4-16,8.9C224.2,450.5,220.9,460.4,219.2,473.6z"/>
			</g>
		</g>
		<path id="XMLID_3813_" class="st21" d="M245.1,439.1c-0.2-1,7.8-1.3,7.9,0.6C253,441.8,245.3,440.8,245.1,439.1z"/>
	</g>
	<g id="XMLID_996_">
		<linearGradient id="XMLID_57_" gradientUnits="userSpaceOnUse" x1="249.9975" y1="534.287" x2="47.243" y2="655.0769">
			<stop  offset="0" style="stop-color:#FBE4DB"/>
			<stop  offset="1" style="stop-color:#FBE4DB;stop-opacity:0"/>
		</linearGradient>
		<path id="XMLID_997_" class="st22" d="M247.7,471.8l-23.4-1.1C109.6,515,40,576.2,0,622.4v86.9l59,28.6
			C-21.4,554,247.7,471.8,247.7,471.8z"/>
	</g>
	<g id="XMLID_473_">
		<linearGradient id="XMLID_58_" gradientUnits="userSpaceOnUse" x1="759.1519" y1="409.5373" x2="971.4088" y2="563.0153">
			<stop  offset="0" style="stop-color:#FBE4DB"/>
			<stop  offset="1" style="stop-color:#FBE4DB;stop-opacity:0"/>
		</linearGradient>
		<path id="XMLID_474_" class="st23" d="M762.1,418.3l-51.4-0.5c0,0,101.9,47.2,218.3,244.4l106.6-182.7
			C910.4,521.2,762.1,418.3,762.1,418.3z"/>
	</g>
	<g id="XMLID_392_">
		<g id="XMLID_465_">
			<path id="XMLID_471_" class="st19" d="M683.7,398.1c0,0,20-1.4,42.3,3.6c22.2,5,36.4,16.9,40.5,21c0,0-16.1,5.2-39.6,0.4
				C704.6,418.6,690.3,407.5,683.7,398.1z"/>
			<path id="XMLID_470_" class="st17" d="M753.2,417.4l-4,5.3l17.3,0.1c0,0-11.4,4.4-34.4,1.3c-23-3-40.3-14.8-48-25.4
				c0,0,2.6,2.8,5.1,4.7l4.4-1.4C693.8,402.1,731.6,399.8,753.2,417.4z"/>
			<g id="XMLID_468_">
				<path id="XMLID_469_" class="st21" d="M766.4,422.9l0.3-0.3c-0.1-0.1-5.9-5.8-16.6-12l-0.2,0.3
					C760.5,417.1,766.3,422.8,766.4,422.9z"/>
			</g>
			<g id="XMLID_466_">
				<path id="XMLID_467_" class="st21" d="M683.8,398.3c4.4-0.2,8.7-0.2,8.7-0.2v-0.4c0,0-4.3,0-8.7,0.2L683.8,398.3z"/>
			</g>
		</g>
		<path id="XMLID_463_" class="st18" d="M691.4,401.6c1-3.4,7.8-36.2,27.5-36.5c28.6-0.5,35.1,29.5,34.3,52.3c0,0-19.1,1.2-37.5-4.1
			C698.4,408.3,691.4,401.6,691.4,401.6z"/>
		<g id="XMLID_461_">
			<path id="XMLID_462_" class="st24" d="M759.4,423.2c4.6,0,7-0.3,7.1-0.3l0-0.4c-0.1,0-14.7,1.6-40.5-3.2
				c-15.3-2.8-25.9-8.5-32.1-12.8c-6.8-4.6-9.9-8.6-10-8.7l-0.3,0.2c0,0,3.2,4.1,10,8.7c6.3,4.3,16.9,10,32.3,12.9
				C741.3,422.6,752.7,423.2,759.4,423.2z"/>
		</g>
		<g id="XMLID_400_">
			<g id="XMLID_459_">
				<path id="XMLID_460_" class="st25" d="M730.1,391.8C730.1,391.8,730.1,391.8,730.1,391.8C730.1,391.8,730.1,391.8,730.1,391.8z"
					/>
			</g>
			<g id="XMLID_457_">
				<path id="XMLID_458_" class="st25" d="M740.2,394.5C740.2,394.5,740.1,394.5,740.2,394.5C740.2,394.6,740.2,394.6,740.2,394.5z"
					/>
			</g>
			<g id="XMLID_403_">
				<path id="XMLID_456_" class="st20" d="M730.9,404.2c0,0-3.2-1.6-4-1.2c-0.7,0.4-0.2,4.6-0.2,4.6s-0.9-0.9-1.6-0.7
					c-0.7,0.2,2.2,1.2,2.2,1.2l0.2-3.7l3.6,2.4L730.9,404.2z"/>
				<path id="XMLID_455_" class="st20" d="M712.9,406.2c0,0-8-3.1-2.4-5.3c5.6-2.2,8.9,1.6,8.9,1.6L712.9,406.2z"/>
				<path id="XMLID_454_" class="st20" d="M728.8,410.7c0,0-6.4-2.3-0.7-4.5c5.6-2.2,9.3,0.6,9.3,0.6L728.8,410.7z"/>
				<path id="XMLID_453_" class="st20" d="M716,398.3c0,0-3.5-3.6-4.7-3.2c-1.3,0.4-1.5,4.4-1.5,4.4l5,2.8L716,398.3z"/>
				<polygon id="XMLID_452_" class="st20" points="705.9,392.7 701.9,394.6 700,389.7 699.2,389.9 701.4,395.1 706.5,393.1 
					707.2,389.3 706.1,389.1 				"/>
				<path id="XMLID_451_" class="st20" d="M701.3,393.2l0.3-0.9l-0.3-0.2c0,0-0.3-1-0.8-1l0.2,0.5l-0.7,0.2l-0.2-0.4l-0.5,1.2l1.2,1
					L701.3,393.2z"/>
				<path id="XMLID_450_" class="st20" d="M708.9,383.4l-0.9,1.2c0,0,0.3,0.5,0.1,0.9c-0.2,0.3-1.1,1-1.1,1.2s0.9,0.3,0.9,0.3
					s-0.7,1-0.6,1.2c0,0.2,1.7,0.8,1.7,0.8l0.7,1.1c0,0,2.9,0.2,2.4-2.8C711.6,384.4,708.9,383.4,708.9,383.4z"/>
				<path id="XMLID_449_" class="st20" d="M714.6,401c0,0-7-6.1-8.7-5.3c-1.7,0.8,1,8.7,1,8.7s-2.2-2.2-3-1.4
					c-0.8,0.8,4,3.6,4.7,2.9c0.7-0.7-0.1-5.5-0.1-5.5l4.9,5.1c0,0,2.7,1.1,3.8-1.6C718.2,401.3,714.6,401,714.6,401z"/>
				<path id="XMLID_448_" class="st20" d="M713.5,387.5l0.2-0.5c0,0,3.8-3.9-0.9-3.7c-0.7-3-3.7-0.5-4.8-2.5
					c-1.3,2.6,1.6,2.8,1.9,4.2c0.3,1.7-0.4,2.2-0.4,2.2l0.4,0.3c0,0,0.6-1.1,1-0.5c0.4,0.6-0.3,1.1-0.2,1.2
					C711.3,389,712.6,388.5,713.5,387.5z"/>
				<path id="XMLID_447_" class="st20" d="M718,389c0,0,0.6-1.3,0.4-1.5c-0.2-0.2-3.1,0.7-3.1,0.7s-0.2-1.2-2.1-0.8
					c-2,0.4-1.7,1.9-1.7,1.9l-3.6,1.1c0,0,0.2,1.3,0.9,1.7c0.7,0.4,1.3,1.7,1.3,1.7s2.5,2,3.1,3.1c0.6,1.1,1.1,2.9,0.6,4.4
					c0,0-0.9,3.6,1.7,4c2.1,0.4,5.7-2.9,5.7-2.9S722.8,396,718,389z"/>
				<path id="XMLID_446_" class="st20" d="M709.6,390.9l-6.9,5c0,0-0.8,1.1-0.8,2l9.3-4.1C711.2,393.7,711.4,391.7,709.6,390.9z"/>
				<path id="XMLID_445_" class="st20" d="M701.9,397.9c0,0-2-5.1-1.1-5.1c0.9,0,2.1,3.2,2.1,3.2L701.9,397.9z"/>
				<path id="XMLID_444_" class="st20" d="M712.9,406.2c0,0,4.5-16.2,10.8-17.5c6.3-1.3,0.5,12.7,0.5,12.7S721.4,405.3,712.9,406.2z
					"/>
				<path id="XMLID_442_" class="st20" d="M735.3,396.2c0,0-1.1,1.2-1.8,2.5c-0.5,1.1-1.3,1.2-2,0.9c-1.9-0.9-1.1-3.2-1.1-3.2
					L735.3,396.2z"/>
				<path id="XMLID_435_" class="st20" d="M730.2,395.6c0,0-0.9-0.3-0.2-1.8c0.6-1.3,4.2-1.5,5.1,0.8c0,0,1.4-1.1,0.5,1.8
					c-0.6,1.9-1.7,2.6-2.7,2.4c-1.7-0.3-1.9-2.6-2.2-2.5c-0.3,0.1-0.3,0.8-0.3,0.8S730.2,397,730.2,395.6z"/>
				<path id="XMLID_434_" class="st20" d="M734.2,400c0,0-0.1-0.8-1.1-1.1c-1-0.3-1.5,0.8-1.5,0.8l-1.3-0.2c0,0-0.4,0.8-0.3,3
					c0.2,2.1,0.8,3.9,0.8,3.9s0.2,2.3,1.1,2.8c0.9,0.5,0-0.2,0-0.2s2.3-0.4,3-0.8c0.7-0.4,1.8-3.5,1.3-5.5l0.1-2.2L734.2,400z"/>
				<path id="XMLID_433_" class="st20" d="M731.6,409.1l-5-2.6l-4.9,1.4c0,0,0,0.3-0.2,0.3s-1.3-1.7-0.9-2.1
					c0.4-0.4,1.1,1.5,1.1,1.5l5.1-2.8l4.8,1.1L731.6,409.1z"/>
				<path id="XMLID_425_" class="st20" d="M736.9,398.7c3.9-1.9,1.6,8.4,1.6,8.4s-3.1,2.7-9.8,3.8
					C728.7,410.8,733,400.6,736.9,398.7z"/>
				<polygon id="XMLID_424_" class="st20" points="707,390.3 706.9,390.9 706.3,390.6 705.7,390.7 705.7,391.9 706.3,391.9 
					706.8,391.6 706.7,392 707.4,391.8 707.7,391.1 				"/>
				<polygon id="XMLID_420_" class="st20" points="706.1,390.1 705.4,390.3 705.6,390.5 706.1,390.6 				"/>
				<path id="XMLID_419_" class="st20" d="M707.7,391.1l-0.3,0.7l1.4,1.4c0,0,1.5-1.5,1.4-1.5C710.1,391.8,707.7,391.1,707.7,391.1z
					"/>
				<g id="XMLID_407_">
					<path id="XMLID_408_" class="st20" d="M713.9,401l0.2-0.1c-1-1.3-3.9-3.5-4-3.6l-0.1,0.2C710,397.5,712.9,399.7,713.9,401z"/>
				</g>
				<g id="XMLID_404_">
					
						<rect id="XMLID_406_" x="728.6" y="403.3" transform="matrix(-0.2186 0.9758 -0.9758 -0.2186 1283.4211 -217.2683)" class="st20" width="0.2" height="3.9"/>
				</g>
			</g>
		</g>
		<path id="XMLID_397_" class="st26" d="M753.1,411.4c0,0-9,6.4-23.8,3.5c-23.4-4.5-35.8-21.3-35.8-21.3c-1.6,2.8-2.1,8-2.1,8
			s11.3,9.7,31.3,13.6c20.3,4,30.5,2.3,30.5,2.3L753.1,411.4z"/>
		<g id="XMLID_395_">
			<path id="XMLID_396_" class="st21" d="M753.5,417.5c0.1-8.1-0.2-20.2-3.8-30.7c-3.9-11.4-11.1-18.4-21.2-21
				c-7.4-1.9-14-1.1-19.6,2.4c-12.5,7.8-16.5,27-17.8,33.3l0.6,0.1c1.3-6.3,5.3-25.3,17.6-33c5.4-3.4,11.9-4.2,19.1-2.3
				c9.9,2.5,16.9,9.5,20.8,20.6c3.6,10.4,3.9,22.4,3.8,30.5L753.5,417.5z"/>
		</g>
		<path id="XMLID_394_" class="st20" d="M753.2,417.4c0,0-19.1,1.2-37.5-4.1c-17.4-5-24.3-11.7-24.3-11.7c0.2-0.6,0.5-1.9,1-3.7
			c7.9,0.1,20.4,0.8,33.6,3.8c11.2,2.5,20.4,6.8,27.3,11C753.3,414.3,753.3,415.8,753.2,417.4z"/>
		<path id="XMLID_393_" class="st21" d="M722.2,369.7c0.1-1.6-11.8-1.2-11.7,1.8C710.5,374.4,722,372,722.2,369.7z"/>
	</g>
</g>
</svg>
