<?xml version="1.0" encoding="utf-8"?>
<!-- Generator: Adobe Illustrator 19.0.0, SVG Export Plug-In . SVG Version: 6.00 Build 0)  -->
<svg version="1.1" id="Layer_1" xmlns="http://www.w3.org/2000/svg" xmlns:xlink="http://www.w3.org/1999/xlink" x="0px" y="0px"
	 viewBox="0 0 155.5 140.5" style="enable-background:new 0 0 155.5 140.5;" xml:space="preserve">
<style type="text/css">
	.st0{fill:#B2273E;}
	.st1{fill:#F55164;}
	.st2{fill:#FAABB4;}
	.st3{fill:#71D2D5;}
	.st4{opacity:0.3;fill:#FFFFFF;}
	.st5{fill:#AB3B3F;}
	.st6{fill:#025E9A;}
	.st7{opacity:0.8;}
	.st8{fill:#FFFFFF;}
</style>
<g id="XMLID_12_">
	<g id="XMLID_38_">
		<path id="XMLID_307_" class="st0" d="M0.4,33.4c-3.1,4.7,13.4,74,17,76c3.6,2,115.4,5.1,119.8,2.5c4.4-2.6,21.3-97,16.8-101.4
			C149.4,6.1,3.5,28.6,0.4,33.4z"/>
		<g id="XMLID_301_">
			<g id="XMLID_61_">
				<path id="XMLID_62_" class="st1" d="M84.7,111.1c-4.7,1.4-6.6,11.9-5.8,28.4l-0.6,0.1c-0.5-6.4-2.1-27.7-7.3-28.8l5.9-1.2
					L84.7,111.1z"/>
			</g>
		</g>
		<path id="XMLID_298_" class="st1" d="M77.1,139.7c0.2-1.4,3.9-1.7,3.4-0.3C80,140.6,76.9,140.9,77.1,139.7z"/>
		<path id="XMLID_297_" class="st0" d="M76.1,121.2l3.4-0.2l-0.3,2c0,0-0.5-0.9-1.4-0.8c-1,0.2-1.3,1.1-1.3,1.1L76.1,121.2z"/>
		<path id="XMLID_296_" class="st0" d="M77.3,128.7l0.2,1.3c0,0,0.2-0.6,0.6-0.6c0.5-0.1,0.7,0.4,0.7,0.4l0-1.2L77.3,128.7z"/>
		<path id="XMLID_293_" class="st0" d="M78,134.4l0.8-0.1l0,1c0,0-0.1-0.3-0.4-0.3c-0.2,0-0.4,0.5-0.4,0.5L78,134.4z"/>
		<g id="XMLID_240_">
			<path id="XMLID_288_" class="st1" d="M72.3,128.2c-1.2,0-2.1-0.2-2.2-0.6c-0.1-1.1,7.5-2.1,7.5-2.1l0-0.4
				c-1.3,0.2-7.9,1.1-8.1,2.8c-0.1,1,1.3,1.5,3.7,1.5C72.9,129,72.6,128.6,72.3,128.2z"/>
			<path id="XMLID_263_" class="st2" d="M78.2,127.6c-1.8,0.3-4.2,0.6-5.9,0.6c0.2,0.4,0.6,0.8,0.9,1.1c1.4,0,3.1-0.1,5-0.4
				c1.3-0.2,2.4-0.4,3.5-0.6c0.2-0.4,0.4-0.9,0.5-1.4C81,127.1,79.5,127.4,78.2,127.6z"/>
			<path id="XMLID_251_" class="st1" d="M86.2,125.4c-0.5-1.5-7.5-0.4-8.3-0.4l-0.1,0.4c2.3-0.3,7.4-1,7.6-0.1
				c0.1,0.5-1.4,1.1-3.3,1.5c-0.1,0.5-0.3,1-0.5,1.4C84.7,127.5,86.6,126.5,86.2,125.4z"/>
		</g>
		<g id="XMLID_221_">
			<path id="XMLID_237_" class="st1" d="M68.9,119.6c-1.9-0.2-3.2-0.6-3.2-1.3c0-1.7,11.8-2.1,11.8-2.1l0-0.6
				c-2,0.2-12.2,0.5-12.7,3c-0.3,1.5,1.8,2.5,5.4,2.8C69.6,120.9,69.2,120.3,68.9,119.6z"/>
			<path id="XMLID_234_" class="st2" d="M77.9,119.6c-2.8,0.1-6.4,0.3-9,0c0.3,0.7,0.7,1.3,1.3,1.8c2.1,0.2,4.8,0.2,7.7,0.1
				c1.9-0.1,3.8-0.3,5.4-0.5c0.4-0.6,0.7-1.3,1-2C82.2,119.3,79.9,119.5,77.9,119.6z"/>
			<path id="XMLID_222_" class="st1" d="M90.5,117.4c-0.5-2.4-11.4-1.8-12.5-1.8l-0.1,0.6c3.6-0.1,11.5-0.3,11.6,1
				c0.1,0.8-2.3,1.4-5.2,1.8c-0.3,0.7-0.6,1.4-1,2C87.9,120.4,90.9,119.3,90.5,117.4z"/>
		</g>
		<g id="XMLID_188_">
			<path id="XMLID_199_" class="st1" d="M74.4,133.5c0-0.6,3.9-1,3.9-1l0-0.2c-0.7,0.1-4.1,0.4-4.2,1.3c-0.1,0.7,0.8,1,2.3,1.1
				c-0.2-0.2-0.3-0.5-0.3-0.7C75.1,134,74.4,133.8,74.4,133.5z"/>
			<path id="XMLID_195_" class="st2" d="M78.5,133.8c-0.8,0.1-1.7,0.1-2.5,0.1c0.1,0.3,0.2,0.5,0.3,0.7c0.6,0,1.4,0,2.2-0.1
				c0.4,0,0.8-0.1,1.1-0.1c0.2-0.3,0.4-0.5,0.5-0.8C79.6,133.7,79,133.8,78.5,133.8z"/>
			<path id="XMLID_190_" class="st1" d="M82.7,132.8c-0.4-0.9-3.8-0.5-4.2-0.5l0,0.2c1.2-0.1,3.9-0.3,3.9,0.3c0.1,0.4-1,0.7-2.2,0.9
				c-0.1,0.3-0.3,0.6-0.5,0.8C81.6,134.2,83.1,133.7,82.7,132.8z"/>
		</g>
		<path id="XMLID_187_" class="st0" d="M71.1,110.8l13.7,0.3c0,0-2,0.5-3.4,3.4c0,0-1.1-1.1-3.5-1c-2.3,0.1-3.4,1.6-3.4,1.6
			S73.2,111.6,71.1,110.8z"/>
		<path id="XMLID_186_" class="st3" d="M77.8,139.5c-0.1-0.3,1.9-1,2.1-0.5C80.1,139.5,78,139.9,77.8,139.5z"/>
		<g id="XMLID_175_">
			<path id="XMLID_183_" class="st2" d="M65.6,118.4c0.2,0.9,5.4,1.3,12.2,0.9c10.4-0.6,12-1.6,12-2.1c0,0,1.2,1.8-12,2.5
				C64.6,120.4,65.6,118.4,65.6,118.4z"/>
		</g>
		<g id="XMLID_170_">
			<path id="XMLID_172_" class="st1" d="M65.3,18.9c0,0,1.4,1.5,5.8,0.9c4.4-0.6,6.8-2.9,6.8-2.9c-4.9-0.8-6.2-3.2-7.2-7.5l-0.5,0.2
				C70.3,13,69.8,16.5,65.3,18.9z"/>
		</g>
		<g id="XMLID_163_">
			<g id="XMLID_166_">
				<path id="XMLID_169_" class="st4" d="M65.3,18.9c0,0,0.3,0.2,0.7,0.4c2.5-1.5,4.3-3.9,4.6-6.9c-0.2-0.7-0.4-1.5-0.5-2.3
					C70.2,13.3,69.4,16.7,65.3,18.9z"/>
				<path id="XMLID_168_" class="st5" d="M70.3,9.4l-0.2,0.1c0,0.2,0,0.4,0,0.6c0.1,0.8,0.2,1.6,0.5,2.3
					C70.7,11.5,70.6,10.5,70.3,9.4z"/>
				<path id="XMLID_167_" class="st4" d="M77.8,16.8c-4.9-0.8-6.2-3.2-7.2-7.5l-0.3,0.1c0.3,1,0.3,2,0.3,3c0.9,2.7,2.7,4.7,5.1,6
					C77.2,17.6,77.8,16.8,77.8,16.8z"/>
			</g>
			<g id="XMLID_164_">
				<path id="XMLID_165_" class="st0" d="M70.7,9.3L70,9.5c0.1,2,0,4-1,5.8c1.2-0.2,2.4-0.7,3.4-1.4C71.5,12.7,71.1,11.2,70.7,9.3z"
					/>
			</g>
		</g>
		<path id="XMLID_154_" class="st1" d="M65.1,12c0-2.3,10.4-8.3,10.4-5.2C75.5,10.4,65.1,15,65.1,12z"/>
		<path id="XMLID_144_" class="st1" d="M66.8,6.1c0-1.5,6.5-5.2,6.5-3.1C73.3,5,66.8,8,66.8,6.1z"/>
		<path id="XMLID_141_" class="st1" d="M68.6,1.4c0-0.9,2.4-2.1,2.4-1C71,1.1,68.6,2.6,68.6,1.4z"/>
		<path id="XMLID_140_" class="st4" d="M69.4,1c0-0.4,1.2-1,1.2-0.5C70.6,0.8,69.4,1.5,69.4,1z"/>
		<g id="XMLID_138_">
			<path id="XMLID_139_" class="st6" d="M69.6,20.2c-3,0-4.4-1.1-4.4-1.2l0.2-0.3l-0.1,0.1l0.1-0.1c0,0,1.8,1.4,5.6,1
				c3.8-0.4,6.7-3,6.7-3l0.3,0.3c-0.1,0.1-2.9,2.7-6.9,3.1C70.5,20.2,70.1,20.2,69.6,20.2z"/>
		</g>
		<path id="XMLID_129_" class="st4" d="M70.5,8.4c-0.4-0.5,3.8-2.7,4.3-1.7C75.3,7.7,71,9.1,70.5,8.4z"/>
		<path id="XMLID_40_" class="st1" d="M4.7,31.8C6.6,28.2,148.5,2.6,154.4,8.5c5.9,5.9-14,98.6-16.8,101.5
			c-2.9,2.9-111.4,0.5-116.2-2.2C16.7,105.1,2.7,35.3,4.7,31.8z"/>
		<path id="XMLID_39_" class="st4" d="M69.7,4.3c-0.3-0.4,2.7-1.9,3.1-1.2C73.1,3.8,70.1,4.8,69.7,4.3z"/>
	</g>
	<g id="XMLID_20_" class="st7">
		<path id="XMLID_35_" class="st8" d="M77.2,29.8c-18.1,0-17,7.9-17,7.9l0,8.1h17.3v2.4H53.3c0,0-11.6-1.3-11.6,17
			s10.1,17.7,10.1,17.7h6v-8.5c0,0-0.3-10.1,10-10.1H85c0,0,9.6,0.2,9.6-9.3V39.3C94.7,39.3,96.1,29.8,77.2,29.8L77.2,29.8
			L77.2,29.8z M67.6,35.3c1.7,0,3.1,1.4,3.1,3.1c0,1.7-1.4,3.1-3.1,3.1s-3.1-1.4-3.1-3.1C64.5,36.7,65.9,35.3,67.6,35.3L67.6,35.3
			L67.6,35.3z"/>
		<path id="XMLID_30_" class="st8" d="M77.7,100.9c18.1,0,17-7.9,17-7.9l0-8.1H77.4v-2.4h24.2c0,0,11.6,1.3,11.6-17
			c0-18.3-10.1-17.7-10.1-17.7h-6v8.5c0,0,0.3,10.1-10,10.1H69.8c0,0-9.6-0.2-9.6,9.3v15.7C60.2,91.4,58.7,100.9,77.7,100.9
			L77.7,100.9L77.7,100.9z M87.2,95.4c-1.7,0-3.1-1.4-3.1-3.1c0-1.7,1.4-3.1,3.1-3.1c1.7,0,3.1,1.4,3.1,3.1
			C90.3,94,89,95.4,87.2,95.4L87.2,95.4L87.2,95.4z"/>
	</g>
</g>
</svg>
