<?xml version="1.0" encoding="utf-8"?>
<!-- Generator: Adobe Illustrator 19.0.0, SVG Export Plug-In . SVG Version: 6.00 Build 0)  -->
<svg version="1.1" id="Layer_1" xmlns="http://www.w3.org/2000/svg" xmlns:xlink="http://www.w3.org/1999/xlink" x="0px" y="0px"
	 viewBox="0 0 84 84" style="enable-background:new 0 0 84 84;" xml:space="preserve">
<style type="text/css">
	.st0{fill:#FFFFFF;}
</style>
<g id="XMLID_495_">
	<path id="XMLID_503_" class="st0" d="M41.3,6.2C41.3,6.2,41.3,6.2,41.3,6.2C41.3,6.2,41.3,6.2,41.3,6.2C41.3,6.2,41.3,6.2,41.3,6.2
		C41.3,6.2,41.3,6.2,41.3,6.2z"/>
	<path id="XMLID_499_" class="st0" d="M42,0C18.8,0,0,18.8,0,42s18.8,42,42,42s42-18.8,42-42S65.2,0,42,0z M49,81.5
		c-0.2-0.6-0.3-1.2,0-1.8c0.3-0.6,0.5-1.1,0.8-1.7c-1-0.6-1.1-1.4-0.5-2.4c0.9-1.6,2.3-2.1,2.2-4.1c-0.1-1.3,0.2-3.9-1.8-4
		c-0.6,0-1.1,0.4-1.7,0.1c-0.5-0.2-0.7-0.8-0.9-1.3c-0.3-0.7-0.7-1.3-1.1-1.8c-0.6-0.7-1.5-1.1-2.2-1.7c-0.9-0.9-1.7-0.6-2.9-1.1
		c-0.8-0.3-1.5-0.9-2.1-1.6c-0.8-1-1.6-1.4-2.9-0.9c-0.8,0.3-1.5,0.1-2.2-0.3c-1.4-0.7-2.7-1.5-4.1-2.2c-1-0.6-1.4-1.5-1.5-2.5
		c-0.1-1.4-0.7-2.5-1.8-3.3c-0.5-0.4-0.8-0.8-1.2-1.4c-0.6-0.9-1.3-1.7-2-2.5c-0.4-0.6-0.9-1.1-1.3-1.7c-0.1-0.2-0.2-0.5-0.3-0.7
		c-0.2-0.9-0.3-1.1-1.5-1.2c0.3,0.7,0.5,1.5,0.8,2.1c0.6,1.2,1.3,2.3,1.9,3.4c0.3,0.6,0.4,1.2,0.6,1.9c-0.1,0.1-0.2,0.1-0.3,0.2
		c-0.1-0.2-0.4-0.3-0.4-0.5c0-1-0.7-1.6-1.5-2c-0.2-0.1-0.4-0.3-0.6-0.5c0.4-0.4,0.2-0.8,0-1.1c-0.8-1.4-1.4-2.9-2.3-4.3
		c-0.4-0.6-1-1.2-1.7-1.6c-1.2-0.7-1.9-1.8-2.6-2.9c-0.3-0.5-0.6-0.9-0.9-1.4c-0.5-0.7-0.8-1.5-0.8-2.3c-0.1-1.4,0-2.9,0.1-4.3
		c0-0.4,0.2-0.7,0.3-0.9c-0.2-0.7-0.4-1.4-0.5-2c0.1-0.1,0.2-0.1,0.3-0.2c0.3,0.3,0.7,0.5,1,0.8c0.8-0.3,0.9-0.9,0.3-1.4
		c-1.2-1-2.4-1.8-3.6-2.8c0-0.2-0.1-0.6-0.2-1.1c-0.4,0.1-0.6,0.2-0.9,0.3c-0.1-0.8-0.4-1.5-1.4-1.8c1.1-1.5,2.2-3,3.3-4.4
		c0.1-0.1,0.2-0.3,0.3-0.4c2.2-2.6,4.7-4.9,7.5-6.8c1.4-1,2.8-1.9,4.3-2.7C25,5.7,26.7,5,28.4,4.3c0.6-0.3,1-0.1,1.4,0.3
		C30,4.7,30.2,4.9,30.3,5c-0.1,0.2-0.1,0.4-0.2,0.6C30,6.4,30.4,7,31.2,7c0.1,0,0.3,0,0.4,0C32.7,7,33.9,7,35,6.9
		c0.2,0,0.4-0.1,0.6-0.1c0.2,0.6,0.5,1.2,0.8,1.8c0.1,0,0.1,0,0.2,0c0-0.3,0-0.5,0-0.8c-0.2-0.8-0.1-0.9,0.7-1.2
		c0.2-0.1,0.5-0.2,0.7-0.3c0.5-0.2,0.4-0.5,0.1-0.7c-0.2-0.2-0.5-0.3-0.8-0.4c-0.4-0.2-0.9-0.3-1.3-0.5c-0.2-0.1-0.5-0.5-0.5-0.6
		c0.1-0.3,0.3-0.7,0.6-0.8c0.8-0.4,2.6,0,3,0.8c0.1,0.2,0,0.6,0,1.1c0.2,0.1,0.6,0.2,1,0.4c0.4,0.2,0.7,0.5,1,0.7
		c0.8-0.9,1-0.8,1.5,0.3c0.6,1.5,1,1.6,2,0.4c0.2-0.2,0.4-0.4,0.5-0.6c0.1-0.2,0.2-0.4,0.2-0.7c0.8-0.7,1.6-0.8,2.1-0.3
		c0.5,0.5,0.6,1.1,0.2,1.5c0.1,0.1,0.2,0.2,0.2,0.3c0,0.4,0.1,1-0.1,1.3c-0.1,0.2-0.7,0.2-1.1,0.2c-0.3,0-0.6-0.3-1-0.4
		c-0.6-0.2-1.1-0.1-1.5,0.4C44,8.7,43.9,9,43.7,9.3c-0.6,1.4-1.7,1.9-3.2,1.8c-0.4,0-0.6,0.1-0.8,0.4c0,0.1-0.1,0.2-0.2,0.3
		c-1.2,1.2-1.8,2.6-1.7,4.3c0.8,0.2,1,0.5,1.3,1.7c2.2-0.2,4.3,0.2,6,1.8c1.2-0.5,2-0.1,2.5,1.2c0.3,0.7,0.4,1.4,0.8,2
		c0.8,1.3,1.4,1.1,2.6,0.1c0.1-0.1,0-0.4,0-0.5c-0.1-0.3-0.3-0.5-0.5-0.7c-0.4-0.8-0.2-1.3,0.5-1.8c0.4-0.3,0.8-0.6,1.2-0.9
		c0.6-0.6,0.5-1.2-0.1-1.7c-0.1-0.1-0.2-0.1-0.3-0.2c-0.9-0.6-0.9-0.8-0.3-1.7c0.2-0.3,0.2-0.8,0.2-1.2c0-0.1-0.1-0.2-0.1-0.4
		c-0.5-1.4-0.2-1.8,1.3-1.7c1.7,0.2,3.2,0.8,4.7,1.6c0.7,0.4,1,1.5,0.7,2.1c0.4,0.3,0.8,0.6,1.2,0.8c0.2,0.1,0.5-0.1,0.7-0.2
		c0.4-0.1,0.7-0.2,1.1-0.4c0.2-0.1,0.3-0.2,0.4-0.4c0.2-0.2,0.3-0.4,0.4-0.5c0.3-0.4,0.7-0.3,0.9,0.1c0.5,1.3,1.9,2,2.1,3.6
		c0.1,0.8,1,1.2,1.9,1.1c0.3,0,0.6,0.1,0.9,0.2c0.1,0,0.3,0,0.4,0c0.2,0.8,0.4,1.6,1.4,1.6c0,0.1,0,0.3,0,0.4
		c-0.1,1.2-0.1,1.2-1.3,1.5c-1,0.2-1.6,1-2.3,1.7c-0.9-0.9-2.1-0.8-3.2-0.6c-1,0.2-2.1,0.4-3.1,0.7c-1,0.3-1.7,1.1-2,2.3
		c0.3-0.2,0.4-0.4,0.6-0.6c0.7-0.4,1.4-0.9,2.1-1.2c0.4-0.2,0.9,0,1.4,0.1c0.2,0,0.3,0.3,0.5,0.5c-0.2,0.2-0.4,0.4-0.7,0.5
		c-0.2,0.1-0.5,0-0.6,0c0.4,0.5,0.8,0.9,1.1,1.4c0.1,0.2,0.1,0.5,0,0.7c-0.3,0.3-0.7,0.6-1,0.7C60.2,30,59.3,31,58,31.3
		c-0.2,0.1-0.5,0.5-0.5,0.7c0.1,1.1-0.7,1.4-1.5,1.7c-0.4,0.2-0.8,0.3-1.2,0.5c-0.1,0.1-0.3,0.3-0.2,0.5c0.1,0.5,0,0.8-0.4,0.9
		c-0.3,0.1-0.6-0.1-1-0.1c-0.1,0-0.1-0.1-0.2-0.1c-0.7,0.6-0.8,1.4-0.9,2.3c0.3,0.2,0.5,0.4,0.8,0.7c-0.4,0.3-0.5,0.8-0.6,1.3
		c-0.3,1-1.1,1.6-2,2c-0.8,0.3-1.5,0.7-2,1.4c-0.5,0.9-0.3,1.6,0.6,2c0.2,0.1,0.4,0.3,0.4,0.5c0.1,1.1,0.1,2.2,0.2,3.2
		c0,0.2-0.2,0.5-0.3,0.7c-0.3-0.1-0.8-0.2-0.9-0.4c-0.3-0.5-0.5-1.2-0.7-1.8c-0.3-0.7-0.5-1.4-0.8-2.3c-0.6,0.7-1,0.4-1.5,0.1
		c-0.9-0.5-1.8-1-2.9-0.5c-0.6,0.3-0.9-0.1-1.2-0.5c0.1,0.2,0.1,0.5,0.2,0.7c0.1,0.5-0.3,1-0.7,0.7c-1.3-0.8-2.6-0.2-3.9-0.2
		c0.3,0.5,0.1,0.6-0.4,0.8c-0.4,0.1-0.7,0.5-1.1,0.8c-0.4,0.3-0.3,0.7-0.3,1.2c0.1,1,0,2-0.1,3c-0.2,1.6,0.2,3,1.1,4.3
		c0.7,1.1,2.7,1.6,3.9,1c0.3-0.2,0.6-0.5,0.8-0.9c0.2-0.4,0.3-0.8,0.5-1.2c0.4-0.8,1.6-1.3,2.4-0.8c0.2,0.1,0.4,0.5,0.4,0.7
		c0,0.4-0.2,0.8-0.4,1.1c-0.7,1.1-0.8,2.4-0.9,3.7c0.6,0.2,1,0.1,1.1-0.6c0.7,0.5,1.3,0.7,2,0c0.3-0.3,1.8,2.7,1.7,3.1
		c0,0.6-0.7,0.9-0.3,1.6c0.3,0.5,1,0.7,1.5,0.8c0.3,0.1,0.5,0.2,0.8,0.3c0.1,0,0.2,0.1,0.3,0.1c0.4,0.1,0.8,0.3,1.3,0.4
		c0.1,0,0.3,0.1,0.4,0.1c0.7,0.2,1.5,0,2.2-0.4c0.3-0.2,0.7-0.4,1-0.6c0.4-0.2,0.8-0.4,1.1-0.6c0.8-0.6,1.3-0.2,1.4,0.7
		c0.4-0.2,0.7-0.5,1.1-0.5c0.4,0,0.7,0.3,1.1,0.5c1,0.5,1.9,1,2.9,1.6c0.1-0.1,0.3-0.2,0.5-0.3c0.9-0.5,1.6-0.4,2.4,0.2
		c0.6,0.5,1.3,0.9,1.9,1.4c0.3,0.3,0.7,0.6,0.8,1c0.1,0.4,0.3,0.6,0.7,0.7c0.8,0.2,1.6,0.5,2.5,0.8C64.9,76,57.6,79.9,49,81.5z"/>
</g>
</svg>
