<?xml version="1.0" encoding="utf-8"?>
<!-- Generator: Adobe Illustrator 19.0.0, SVG Export Plug-In . SVG Version: 6.00 Build 0)  -->
<svg version="1.1" id="Layer_1" xmlns="http://www.w3.org/2000/svg" xmlns:xlink="http://www.w3.org/1999/xlink" x="0px" y="0px"
	 viewBox="-88 -64 782.3 658" style="enable-background:new -88 -64 782.3 658;" xml:space="preserve">
<style type="text/css">
	.st0{opacity:0.3;}
	.st1{opacity:0.6;fill:#FFFFFF;enable-background:new    ;}
	.st2{fill:#FFFFFF;}
	.st3{opacity:0.3;fill:#FFFFFF;enable-background:new    ;}
</style>
<g id="XMLID_3639_">
	<g id="XMLID_3848_" class="st0">
		<polygon id="XMLID_3877_" class="st1" points="43.6,414.7 52,414 43.8,412.4 47.4,407.3 43,410.9 41.4,402.1 40.5,411.7 36,408.8 
			39.3,412.7 32.1,414.3 39,414.8 36.3,418.9 40.4,415.9 41.8,423.4 42.9,416.1 46.7,419.3 		"/>
		<polygon id="XMLID_3876_" class="st1" points="603.2,274.9 611.5,274.3 603.3,272.6 606.9,267.5 602.5,271.2 600.9,262.3 
			600,271.9 595.5,269 598.8,272.9 591.6,274.5 598.5,275 595.8,279.1 599.9,276.1 601.3,283.6 602.5,276.3 606.2,279.5 		"/>
		<polygon id="XMLID_3875_" class="st2" points="631.7,110.1 640.1,109.4 631.9,107.8 635.5,102.7 631,106.3 629.5,97.5 
			628.5,107.1 624,104.2 627.3,108.1 620.2,109.7 627,110.2 624.3,114.3 628.4,111.3 629.9,118.8 631,111.5 634.7,114.7 		"/>
		<polygon id="XMLID_3874_" class="st1" points="53.7,81.9 62.1,81.3 53.9,79.6 57.5,74.5 53,78.2 51.5,69.3 50.5,78.9 46,76 
			49.3,79.9 42.2,81.5 49,82.1 46.3,86.1 50.4,83.1 51.9,90.6 53,83.3 56.7,86.6 		"/>
		<polygon id="XMLID_3873_" class="st2" points="189.4,-10.1 190.8,-20 205.5,-21.3 190.8,-22.9 188.6,-34.5 187.7,-22.6 178,-21 
			187.4,-19.8 		"/>
		<polygon id="XMLID_3872_" class="st2" points="94.1,594 95.5,584 110.2,582.7 95.5,581.2 93.4,569.5 92.4,581.4 82.7,583 
			92.1,584.3 		"/>
		<polygon id="XMLID_3871_" class="st3" points="558.7,374.6 560.1,364.7 574.8,363.4 560.2,361.9 558,350.2 557,362.1 547.3,363.7 
			556.7,364.9 		"/>
		<polygon id="XMLID_3870_" class="st3" points="678.3,189.4 679.7,179.5 694.3,178.2 679.7,176.6 677.5,165 676.5,176.9 
			666.9,178.5 676.3,179.7 		"/>
		<polygon id="XMLID_3869_" class="st1" points="-28.1,340.5 -27.2,334.5 -18.4,333.7 -27.2,332.8 -28.5,325.8 -29.1,332.9 
			-34.9,333.9 -29.3,334.6 		"/>
		<polygon id="XMLID_3868_" class="st3" points="190.7,455.1 191.3,450.6 198.1,449.9 191.3,449.3 190.3,443.9 189.9,449.4 
			185.5,450.1 189.8,450.7 		"/>
		<polygon id="XMLID_3867_" class="st3" points="0.5,61.9 1.1,57.3 7.8,56.7 1.1,56 0.1,50.7 -0.3,56.1 -4.8,56.9 -0.5,57.4 		"/>
		<polygon id="XMLID_3866_" class="st2" points="553,589.1 553.9,583.1 562.7,582.3 553.9,581.4 552.5,574.3 552,581.5 546.1,582.5 
			551.8,583.2 		"/>
		<polygon id="XMLID_3865_" class="st1" points="377.6,463.6 381.4,463.3 377.7,462.5 379.3,460.2 377.3,461.8 376.6,457.8 
			376.2,462.2 374.1,460.9 375.6,462.6 372.3,463.4 375.5,463.6 374.2,465.5 376.1,464.1 376.8,467.5 377.3,464.2 379,465.7 		"/>
		<polygon id="XMLID_3864_" class="st3" points="303.6,39.6 307.4,39.3 303.7,38.5 305.3,36.2 303.3,37.8 302.6,33.8 302.2,38.2 
			300.1,36.9 301.6,38.6 298.4,39.4 301.5,39.6 300.3,41.5 302.1,40.1 302.8,43.5 303.3,40.2 305,41.7 		"/>
		<polygon id="XMLID_3863_" class="st2" points="-13.1,-27.1 -9.3,-27.4 -13,-28.2 -11.4,-30.5 -13.4,-28.8 -14.1,-32.9 
			-14.6,-28.5 -16.6,-29.8 -15.1,-28 -18.4,-27.3 -15.2,-27.1 -16.5,-25.2 -14.6,-26.6 -13.9,-23.1 -13.4,-26.5 -11.7,-25 		"/>
		<polygon id="XMLID_3862_" class="st2" points="2.2,508 6.1,507.7 2.3,506.9 4,504.6 1.9,506.3 1.2,502.2 0.8,506.6 -1.3,505.3 
			0.2,507.1 -3,507.8 0.1,508 -1.1,509.9 0.7,508.5 1.4,511.9 1.9,508.6 3.6,510.1 		"/>
		<path id="XMLID_3861_" class="st2" d="M-88,229.7c0,0,6.5,0.8,8.2-7.3c1.6-8,2.3-26.6,2.3-26.6s-1,21.1,0.1,27.9s7.8,6.5,7.8,6.5
			s-6.7,0.3-8,4.3c-1.6,5.1-2.9,24.6-2.9,24.6s1.1-21.3-0.8-25.7C-82.8,229.7-88,229.7-88,229.7z"/>
		<path id="XMLID_3860_" class="st2" d="M510.9,448.2c0,0,6.5,0.8,8.2-7.3c1.6-8,2.3-26.6,2.3-26.6s-1,21.1,0.1,27.9
			s7.8,6.5,7.8,6.5s-6.7,0.3-8,4.3c-1.6,5.1-2.9,24.6-2.9,24.6s1.1-21.3-0.8-25.7C516.1,448.2,510.9,448.2,510.9,448.2z"/>
		<g id="XMLID_3849_">
			<g id="XMLID_34_">
				<path id="XMLID_38_" class="st2" d="M666.2,284.3c0,0-7.9,35.5-8.5,38.3s-4.6,42.8-4.6,42.8s7.9-38,8.4-41
					C662.1,321.4,666.2,284.3,666.2,284.3z"/>
				<path id="XMLID_37_" class="st2" d="M648.2,311.1c0,0,7.7,12.1,10.8,15.3c3.1,3.2,11.5,10.2,11.5,10.2s-5.9-12.1-9.2-14.7
					C657.9,319.4,648.2,311.1,648.2,311.1z"/>
				<path id="XMLID_36_" class="st2" d="M645.3,337.6c0,0,9.6-12.5,13.1-15.6c3.5-3.2,17.7-12.7,17.7-12.7s-12.3,15.4-15.8,17
					C656.7,327.9,645.3,337.6,645.3,337.6z"/>
				<path id="XMLID_35_" class="st2" d="M635.8,327.3c0,0,21.1-6.4,24.5-6.4s22.4-0.7,22.4-0.7s-19.5,6.6-22.9,6.2
					C656.5,326,635.8,327.3,635.8,327.3z"/>
			</g>
		</g>
	</g>
</g>
</svg>
