<?xml version="1.0" encoding="utf-8"?>
<!-- Generator: Adobe Illustrator 19.0.0, SVG Export Plug-In . SVG Version: 6.00 Build 0)  -->
<svg version="1.1" id="Layer_1" xmlns="http://www.w3.org/2000/svg" xmlns:xlink="http://www.w3.org/1999/xlink" x="0px" y="0px"
	 viewBox="0 0 331 88.8" style="enable-background:new 0 0 331 88.8;" xml:space="preserve">
<style type="text/css">
	.st0{fill:#FFFFFF;}
</style>
<g id="XMLID_137_">
	<g id="XMLID_148_">
		<path id="XMLID_149_" class="st0" d="M29.6,84l-1.2-23.4l-5.1,24.7l-7,1.4l-3.4-23.1L8.9,88l-4.1,0.8l6.1-37.4
			c-2.4,1.3-4.1,3.1-5.1,5.3c-1,2.2-1.3,4.8-0.7,7.7c0.1,0.7,0.3,1.2,0.4,1.6c0.2,0.4,0.3,0.7,0.4,0.9c0.1,0.2,0.2,0.4,0.3,0.5
			c0.1,0.1,0.2,0.2,0.2,0.3c-0.8,0.2-1.6,0.2-2.3,0.2c-0.7,0-1.3-0.2-1.9-0.5c-0.5-0.3-1-0.7-1.4-1.2c-0.4-0.5-0.6-1.2-0.8-2.1
			c-0.2-1.1-0.2-2.2,0-3.4c0.2-1.2,0.6-2.3,1.2-3.5C2,56.2,2.7,55.1,3.6,54c0.9-1.1,1.8-2,2.9-2.9c1.1-0.9,2.2-1.6,3.5-2.2
			c1.2-0.6,2.5-1,3.8-1.3c1.3-0.2,2.6-0.3,4,0l4,27l6-28.9l7.3-1.4l1.9,38.4L29.6,84z"/>
		<path id="XMLID_151_" class="st0" d="M71.5,66.4c-0.2,1.5-0.5,2.8-0.9,3.9c-0.4,1.1-0.8,2.1-1.3,2.9c-0.5,0.8-1,1.5-1.5,2
			c-0.5,0.6-1.1,1-1.6,1.3c-0.5,0.3-1.1,0.6-1.6,0.8s-1,0.3-1.5,0.4c-1.4,0.3-2.7,0.1-3.7-0.5s-1.7-1.7-2.2-3.2
			c-0.3,0.7-0.6,1.3-1,2c-0.4,0.6-0.8,1.3-1.4,1.8c-0.5,0.6-1.1,1-1.8,1.5s-1.5,0.7-2.4,0.9c-0.9,0.2-1.7,0.2-2.6,0.1
			c-0.9-0.1-1.7-0.4-2.4-1c-0.8-0.5-1.4-1.3-2-2.2c-0.6-1-1-2.2-1.3-3.7c-0.2-1.2-0.3-2.4-0.4-3.8c0-1.4,0.1-2.8,0.3-4.2
			c0.2-1.4,0.6-2.8,1.1-4.2c0.5-1.4,1.1-2.6,1.9-3.7s1.7-2.1,2.9-2.9c1.1-0.8,2.4-1.3,3.9-1.6c1.4-0.3,2.5-0.2,3.3,0.1
			c0.7,0.4,1.2,0.9,1.3,1.6l0.1,0.4l0-2.8l7.3-1.4l-0.3,18c0,0.3,0,0.6,0,0.9c0,0.3,0.1,0.6,0.1,0.8c0.3,1.5,1.1,2,2.5,1.8
			c0.5-0.1,0.9-0.3,1.3-0.7c0.4-0.3,0.7-0.8,1-1.3c0.3-0.5,0.5-1.1,0.6-1.7c0.2-0.6,0.3-1.3,0.3-2L71.5,66.4z M56.5,57.4
			c0-0.1-0.1-0.3-0.2-0.5c-0.1-0.2-0.3-0.4-0.5-0.6c-0.2-0.2-0.4-0.3-0.7-0.4c-0.3-0.1-0.6-0.1-1.1,0c-0.7,0.1-1.3,0.5-1.9,1.1
			c-0.5,0.6-1,1.3-1.4,2.2s-0.7,1.8-0.9,2.9c-0.2,1.1-0.4,2.1-0.5,3.2c-0.1,1.1-0.1,2.1-0.1,3.2c0,1,0.1,1.9,0.3,2.7
			c0.2,1,0.4,1.7,0.7,2.2c0.3,0.5,0.6,0.8,0.9,1.1c0.3,0.2,0.6,0.3,0.9,0.3c0.3,0,0.6,0,0.8-0.1c0.4-0.1,0.8-0.2,1.1-0.5
			c0.4-0.3,0.7-0.6,1.1-1.1c0.3-0.4,0.6-1,0.8-1.6c0.2-0.6,0.3-1.3,0.4-2.1L56.5,57.4z"/>
		<path id="XMLID_161_" class="st0" d="M101.2,60.7c-0.2,1.5-0.5,2.7-0.9,3.8c-0.4,1.1-0.8,2-1.3,2.8c-0.5,0.8-1,1.4-1.5,2
			s-1.1,1-1.7,1.3c-0.6,0.3-1.1,0.6-1.6,0.8c-0.5,0.2-1,0.3-1.5,0.4c-1.4,0.3-2.6,0.1-3.6-0.4c-1-0.6-1.7-1.6-2.2-3
			c-0.3,0.7-0.6,1.3-1,2c-0.4,0.6-0.8,1.3-1.4,1.8c-0.5,0.6-1.2,1-1.9,1.5c-0.7,0.4-1.5,0.7-2.4,0.9c-0.9,0.2-1.7,0.2-2.6,0.1
			c-0.9-0.1-1.7-0.4-2.4-1c-0.8-0.5-1.4-1.3-2-2.2c-0.6-1-1-2.2-1.3-3.7c-0.2-1.2-0.3-2.4-0.4-3.8c0-1.4,0.1-2.8,0.3-4.2
			c0.2-1.4,0.6-2.8,1.1-4.2c0.5-1.4,1.1-2.6,1.9-3.7c0.8-1.1,1.7-2.1,2.9-2.9s2.4-1.3,3.9-1.6c1.4-0.3,2.5-0.2,3.3,0.1
			c0.7,0.4,1.2,0.9,1.3,1.6l0,0.2l0.2-12.2l7.3-2.5l-0.5,28.6c0,0.3,0,0.6,0,0.9c0,0.3,0.1,0.6,0.1,0.8c0.1,0.7,0.4,1.2,0.8,1.4
			c0.4,0.2,0.9,0.2,1.7,0.1c0.5-0.1,0.9-0.3,1.3-0.6c0.4-0.3,0.7-0.7,1-1.2c0.3-0.5,0.5-1,0.6-1.6c0.2-0.6,0.3-1.2,0.3-1.9
			L101.2,60.7z M86,63.6l0.2-12.1c-0.1-0.1-0.1-0.3-0.3-0.5c-0.1-0.2-0.3-0.4-0.4-0.5c-0.2-0.2-0.4-0.3-0.7-0.4
			c-0.3-0.1-0.6-0.1-1,0c-0.7,0.1-1.3,0.5-1.9,1.1c-0.5,0.6-1,1.3-1.4,2.2c-0.4,0.9-0.7,1.8-0.9,2.9c-0.2,1.1-0.4,2.1-0.5,3.2
			c-0.1,1.1-0.1,2.1-0.1,3.2c0,1,0.1,1.9,0.3,2.7c0.2,1,0.4,1.7,0.7,2.2c0.3,0.5,0.6,0.8,0.9,1.1c0.3,0.2,0.6,0.3,0.9,0.3
			c0.3,0,0.6,0,0.8-0.1c0.3-0.1,0.7-0.2,1.1-0.5c0.4-0.3,0.7-0.6,1.1-1c0.3-0.4,0.6-0.9,0.8-1.5c0.2-0.6,0.3-1.3,0.4-2L86,63.6z"/>
		<path id="XMLID_174_" class="st0" d="M118.4,59.3c0,1.5-0.2,2.8-0.5,3.9c-0.4,1.1-0.9,2-1.6,2.7c-0.7,0.7-1.4,1.3-2.3,1.7
			c-0.9,0.4-1.9,0.7-2.9,0.9c-1.2,0.2-2.3,0.3-3.3,0.2c-1-0.1-1.9-0.4-2.8-0.9c-0.8-0.5-1.5-1.2-2.1-2.2s-1-2.1-1.3-3.6
			c-0.2-1-0.3-2.1-0.4-3.4c0-1.3,0-2.7,0.2-4.1c0.2-1.4,0.5-2.8,0.9-4.3c0.5-1.4,1.1-2.7,1.9-4c0.8-1.2,1.8-2.3,3.1-3.1
			s2.7-1.5,4.5-1.8c1.1-0.2,2.1-0.3,2.9-0.1s1.4,0.4,1.9,0.7c0.5,0.4,0.9,0.8,1.2,1.4c0.3,0.6,0.5,1.1,0.6,1.8
			c0.3,1.5,0.2,2.9-0.2,4.3c-0.4,1.4-1.1,2.7-2,3.8c-0.9,1.2-2,2.2-3.3,3c-1.3,0.9-2.7,1.5-4.2,1.9c0,0.3,0,0.6,0.1,0.8
			c0,0.3,0.1,0.5,0.1,0.7c0.2,0.8,0.4,1.5,0.6,2c0.3,0.5,0.6,0.9,0.9,1.2c0.3,0.3,0.7,0.4,1.1,0.5c0.4,0.1,0.8,0,1.3,0
			c0.5-0.1,1-0.3,1.5-0.5c0.5-0.3,1-0.6,1.5-0.9c0.5-0.3,0.9-0.7,1.4-1.2C117.7,60.1,118.1,59.7,118.4,59.3z M108.7,55.5
			c1-0.2,1.9-0.7,2.7-1.3c0.8-0.7,1.5-1.4,2-2.3c0.5-0.9,0.9-1.9,1.1-3c0.2-1.1,0.2-2.1,0-3.2c-0.1-0.6-0.3-1.1-0.6-1.5
			c-0.3-0.3-0.6-0.5-1.1-0.4c-0.6,0.1-1.2,0.6-1.7,1.3s-0.9,1.7-1.3,2.8c-0.3,1.1-0.6,2.3-0.8,3.7C108.8,52.9,108.7,54.2,108.7,55.5
			z"/>
		<path id="XMLID_185_" class="st0" d="M150.7,34.2l7.3-1.4l-0.3,18c0,0.8,0,1.5,0.1,1.9c0.1,0.5,0.3,0.9,0.6,1.1s0.8,0.3,1.4,0.2
			c0.8-0.2,1.6-0.6,2.2-1.3c0.6-0.7,1.2-1.6,1.7-2.7c0.5-1.1,0.8-2.3,1.1-3.6c0.3-1.3,0.5-2.6,0.6-4c0.1-1.3,0.2-2.6,0.2-3.9
			c0-1.2-0.1-2.3-0.3-3.2c0,0.1-0.1,0.2-0.2,0.3c-0.1,0.1-0.3,0.2-0.4,0.3c-0.2,0.1-0.3,0.1-0.5,0.2c-0.2,0-0.3,0.1-0.4,0.1
			c-0.3,0.1-0.6,0-0.8-0.1c-0.3-0.1-0.5-0.3-0.7-0.5c-0.2-0.2-0.4-0.5-0.5-0.8c-0.1-0.3-0.2-0.6-0.3-0.9c-0.2-0.8,0-1.5,0.4-2.1
			c0.4-0.6,1.2-1,2.2-1.2c0.6-0.1,1.1-0.1,1.6,0.1c0.5,0.2,0.8,0.4,1.2,0.8c0.3,0.4,0.6,0.8,0.8,1.3c0.2,0.5,0.4,1,0.5,1.6
			c0.3,1.4,0.4,2.9,0.5,4.5c0.1,1.7,0,3.4-0.2,5.1c-0.2,1.8-0.5,3.5-1,5.2c-0.5,1.7-1.1,3.2-2,4.7c-0.8,1.4-1.9,2.6-3.1,3.6
			c-1.2,1-2.7,1.7-4.5,2c-1.7,0.3-3.1,0.2-4.3-0.3c-1.2-0.5-2.1-1.4-2.6-2.8c-0.4,1-0.9,1.9-1.5,2.6c-0.5,0.7-1.1,1.2-1.6,1.7
			c-0.6,0.4-1.1,0.7-1.7,1s-1.1,0.4-1.6,0.5c-0.8,0.1-1.5,0.2-2.2,0.1c-0.7-0.1-1.4-0.4-1.9-0.8s-1.1-1-1.5-1.7
			c-0.4-0.7-0.7-1.6-1-2.7c-0.1-0.5-0.2-1-0.2-1.5c0-0.6-0.1-1.2-0.1-1.9l0.3-17l7.3-1.4l-0.3,18c0,0.4,0,0.9,0.1,1.3
			c0.1,0.3,0.1,0.6,0.2,0.8c0.1,0.3,0.2,0.5,0.4,0.7c0.2,0.2,0.3,0.3,0.6,0.4c0.2,0.1,0.5,0.1,0.8,0c0.5-0.1,0.9-0.3,1.3-0.6
			c0.4-0.3,0.7-0.7,0.9-1.1c0.3-0.5,0.5-1,0.6-1.6c0.1-0.6,0.3-1.2,0.3-1.9L150.7,34.2z"/>
		<path id="XMLID_192_" class="st0" d="M182.5,21c0.1,0.6,0.1,1.1,0,1.6c-0.1,0.5-0.3,1-0.6,1.4c-0.3,0.4-0.7,0.8-1.1,1.1
			c-0.4,0.3-1,0.5-1.5,0.6c-0.6,0.1-1.1,0.1-1.6,0c-0.5-0.1-1-0.3-1.4-0.6s-0.8-0.7-1.1-1.1c-0.3-0.4-0.5-1-0.6-1.5
			c-0.1-0.6-0.1-1.1,0-1.6c0.1-0.5,0.3-1,0.6-1.5c0.3-0.4,0.7-0.8,1.1-1.1c0.4-0.3,1-0.5,1.5-0.6c0.6-0.1,1.1-0.1,1.6,0
			s1,0.3,1.5,0.6s0.8,0.7,1.1,1.1S182.4,20.4,182.5,21z M190.2,43.4c-0.2,1.5-0.5,2.8-0.9,3.9c-0.4,1.1-0.8,2.1-1.3,2.9
			c-0.5,0.8-1,1.5-1.6,2.1c-0.6,0.6-1.2,1-1.8,1.4c-0.6,0.4-1.2,0.6-1.7,0.8s-1.1,0.3-1.5,0.4c-0.8,0.1-1.5,0.2-2.2,0.1
			c-0.7-0.1-1.4-0.4-1.9-0.8c-0.6-0.4-1.1-1-1.5-1.7c-0.4-0.7-0.7-1.6-1-2.7c-0.1-0.5-0.2-1-0.2-1.5c0-0.6-0.1-1.2-0.1-1.9l0.3-17
			l7.3-1.4l-0.3,18c0,0.3,0,0.6,0,0.9c0,0.3,0.1,0.5,0.1,0.8c0.1,0.7,0.4,1.2,0.8,1.4c0.4,0.2,0.9,0.2,1.6,0.1
			c0.5-0.1,1-0.3,1.4-0.6c0.4-0.3,0.8-0.7,1.1-1.2c0.3-0.5,0.6-1,0.8-1.6c0.2-0.6,0.3-1.3,0.4-1.9L190.2,43.4z"/>
		<path id="XMLID_201_" class="st0" d="M206.8,40.2c-0.2,1.5-0.5,2.8-0.9,3.9c-0.4,1.1-0.8,2.1-1.3,2.9c-0.5,0.8-1,1.5-1.6,2.1
			c-0.6,0.6-1.2,1-1.8,1.4c-0.6,0.4-1.2,0.6-1.7,0.8c-0.6,0.2-1.1,0.3-1.5,0.4c-0.8,0.1-1.5,0.2-2.2,0.1c-0.7-0.1-1.4-0.4-1.9-0.8
			s-1.1-1-1.5-1.7c-0.4-0.7-0.7-1.6-1-2.7c-0.1-0.5-0.2-1-0.2-1.5c0-0.6-0.1-1.2-0.1-1.9l0.3-14.8l-1.7,0.3l0-2.1l1.7-0.3l0.2-7.3
			l7.3-2.5l-0.2,8.4l3.1-0.6l0,2.1l-3,0.6l-0.3,15.9c0,0.3,0,0.6,0,0.9c0,0.3,0.1,0.5,0.1,0.8c0.1,0.7,0.4,1.2,0.8,1.4
			c0.4,0.2,0.9,0.2,1.6,0.1c0.5-0.1,1-0.3,1.4-0.6c0.4-0.3,0.8-0.7,1.1-1.2c0.3-0.5,0.6-1,0.8-1.6c0.2-0.6,0.3-1.3,0.4-1.9
			L206.8,40.2z"/>
		<path id="XMLID_213_" class="st0" d="M207.5,49.5l0.7-36l7.3-2.5l-0.3,13.3c0.4-0.7,0.9-1.3,1.3-1.8c0.5-0.5,0.9-0.9,1.4-1.1
			c0.5-0.3,0.9-0.5,1.4-0.7c0.4-0.2,0.9-0.3,1.3-0.3c0.8-0.2,1.6-0.2,2.3-0.1c0.7,0.1,1.4,0.3,2,0.7s1.1,0.9,1.5,1.6
			c0.4,0.7,0.7,1.5,0.9,2.5c0.1,0.7,0.2,1.4,0.2,2.2c0,0.8,0,1.6,0,2.5c0,0.9-0.1,1.7-0.1,2.6c0,0.9-0.1,1.7-0.1,2.4
			c0,0.8-0.1,1.5-0.1,2.2c0,0.7,0,1.2,0.1,1.7c0.1,0.6,0.4,1.1,0.7,1.5c0.4,0.3,0.9,0.4,1.7,0.3c0.8-0.2,1.4-0.4,1.6-0.6
			c0.1,0.9,0,1.8-0.2,2.5c-0.2,0.7-0.5,1.3-1,1.9c-0.4,0.5-0.9,1-1.5,1.3c-0.6,0.3-1.2,0.5-1.9,0.7c-1,0.2-1.8,0.2-2.5,0
			c-0.7-0.2-1.3-0.5-1.8-1c-0.5-0.5-0.9-1-1.2-1.7c-0.3-0.7-0.5-1.3-0.7-2.1c-0.2-0.9-0.2-1.9-0.2-3.1c0-1.2,0-2.4,0.1-3.7
			c0-1.3,0.1-2.5,0.1-3.6c0-1.2,0-2.2-0.2-3c-0.3-1.7-1.1-2.5-2.3-2.2c-0.4,0.1-0.8,0.3-1.1,0.5c-0.3,0.3-0.6,0.6-0.9,1.1
			c-0.3,0.4-0.5,0.9-0.6,1.5c-0.2,0.5-0.3,1.1-0.4,1.7l-0.3,17.6L207.5,49.5z"/>
		<path id="XMLID_223_" class="st0" d="M263.5,29.2c-0.2,1.5-0.5,2.8-0.9,3.9c-0.4,1.1-0.8,2.1-1.3,2.9c-0.5,0.8-1,1.5-1.6,2.1
			c-0.6,0.6-1.2,1-1.8,1.4c-0.6,0.4-1.2,0.6-1.7,0.8c-0.6,0.2-1.1,0.3-1.5,0.4c-0.8,0.1-1.5,0.2-2.2,0.1c-0.7-0.1-1.4-0.4-1.9-0.8
			s-1.1-1-1.5-1.7c-0.4-0.7-0.7-1.6-1-2.7c-0.1-0.5-0.2-1-0.2-1.5c0-0.6-0.1-1.2-0.1-1.9l0.5-26.5l7.3-2.5l-0.5,28.6
			c0,0.3,0,0.6,0,0.9c0,0.3,0.1,0.5,0.1,0.8c0.1,0.7,0.4,1.2,0.8,1.4c0.4,0.2,0.9,0.2,1.6,0.1c0.5-0.1,1-0.3,1.4-0.6
			c0.4-0.3,0.8-0.7,1.1-1.2c0.3-0.5,0.6-1,0.8-1.6c0.2-0.6,0.3-1.3,0.4-1.9L263.5,29.2z"/>
		<path id="XMLID_235_" class="st0" d="M291,13.3c-0.8,1.2-1.9,2.4-3.3,3.4c-1.4,1-3,1.9-4.9,2.6c0.3,2.4,0.2,4.6-0.1,6.6
			c-0.3,2-0.9,3.8-1.7,5.3c-0.8,1.5-1.9,2.8-3.1,3.8c-1.3,1-2.7,1.6-4.2,1.9c-1.2,0.2-2.3,0.3-3.3,0.2c-1.1-0.1-2-0.4-2.8-0.9
			c-0.8-0.5-1.6-1.2-2.2-2.2c-0.6-0.9-1-2.1-1.3-3.6c-0.2-1-0.3-2.1-0.3-3.4c0-1.3,0-2.7,0.2-4.1c0.2-1.4,0.5-2.9,1-4.3
			c0.5-1.4,1.1-2.7,2-3.9c0.8-1.2,1.9-2.3,3.1-3.1c1.2-0.9,2.7-1.5,4.5-1.8c4.3-0.8,7,1.4,8.1,6.8l0,0c0.1,0,0.2,0,0.2,0
			c0.1,0,0.2,0,0.3-0.1c0.6-0.1,1.2-0.3,1.9-0.6c0.7-0.3,1.3-0.7,1.9-1.1s1.3-0.9,1.8-1.4s1.1-1,1.6-1.5L291,13.3z M278.6,20.2
			c-0.6,0-1-0.2-1.2-0.6c-0.3-0.4-0.4-0.8-0.5-1.3c-0.1-0.7-0.1-1.3,0.1-1.8c0.2-0.5,0.5-0.9,1-1.2c-0.1-0.5-0.3-1-0.4-1.3
			c-0.2-0.4-0.3-0.6-0.5-0.9s-0.4-0.3-0.7-0.4s-0.5,0-0.9,0c-0.6,0.1-1.2,0.5-1.6,1s-0.9,1.3-1.2,2.2c-0.4,0.9-0.6,1.9-0.9,2.9
			c-0.2,1.1-0.4,2.2-0.5,3.3c-0.1,1.1-0.1,2.2-0.1,3.3c0,1.1,0.1,2,0.3,2.9c0.2,0.8,0.3,1.5,0.5,2c0.2,0.5,0.4,0.9,0.7,1.2
			c0.3,0.3,0.6,0.4,0.9,0.5c0.4,0.1,0.8,0,1.2-0.1c0.6-0.1,1.2-0.5,1.7-1.2c0.5-0.7,0.9-1.5,1.3-2.6s0.6-2.3,0.8-3.6
			C278.7,23.2,278.7,21.8,278.6,20.2z"/>
		<path id="XMLID_239_" class="st0" d="M290,7.2l7.3-1.4l-0.3,18c0,0.4,0,0.8,0,1.1s0,0.6,0.1,0.8c0.1,0.5,0.3,0.9,0.6,1.1
			c0.3,0.3,0.8,0.3,1.4,0.2c0.8-0.2,1.6-0.6,2.2-1.3c0.6-0.7,1.2-1.6,1.7-2.7c0.5-1.1,0.8-2.3,1.1-3.6c0.3-1.3,0.5-2.6,0.6-4
			c0.1-1.3,0.2-2.6,0.2-3.9c0-1.2-0.1-2.3-0.3-3.2c0,0.1-0.1,0.2-0.2,0.3c-0.1,0.1-0.3,0.2-0.4,0.3c-0.2,0.1-0.3,0.1-0.5,0.2
			c-0.2,0-0.3,0.1-0.4,0.1c-0.3,0.1-0.6,0-0.8-0.1s-0.5-0.3-0.7-0.5c-0.2-0.2-0.4-0.5-0.5-0.8c-0.1-0.3-0.2-0.6-0.3-0.9
			c-0.2-0.8,0-1.5,0.4-2.1c0.4-0.6,1.2-1,2.2-1.2c0.6-0.1,1.1-0.1,1.6,0.1c0.5,0.2,0.8,0.4,1.2,0.8c0.3,0.4,0.6,0.8,0.8,1.3
			c0.2,0.5,0.4,1,0.5,1.6c0.3,1.4,0.4,2.9,0.5,4.5c0.1,1.7,0,3.4-0.2,5.1c-0.2,1.8-0.5,3.5-1,5.2c-0.5,1.7-1.1,3.2-2,4.7
			c-0.8,1.4-1.9,2.6-3.1,3.6c-1.2,1-2.7,1.7-4.5,2c-1.9,0.4-3.5,0.2-4.8-0.6c-1.3-0.8-2.2-2.2-2.5-4.2c-0.1-0.3-0.1-0.6-0.2-1.1
			c-0.1-0.4-0.1-0.9-0.1-1.4L290,7.2z"/>
		<path id="XMLID_262_" class="st0" d="M330.1,18.3c0,1.5-0.2,2.8-0.5,3.9c-0.4,1.1-0.9,2-1.6,2.7c-0.7,0.7-1.4,1.3-2.3,1.7
			c-0.9,0.4-1.9,0.7-2.9,0.9c-1.2,0.2-2.3,0.3-3.3,0.2s-1.9-0.4-2.8-0.9c-0.8-0.5-1.5-1.2-2.1-2.2c-0.6-0.9-1-2.1-1.3-3.6
			c-0.2-1-0.3-2.1-0.4-3.4c0-1.3,0-2.7,0.2-4.1c0.2-1.4,0.5-2.8,0.9-4.3c0.5-1.4,1.1-2.7,1.9-4s1.8-2.3,3.1-3.1
			c1.2-0.9,2.7-1.5,4.5-1.8c1.1-0.2,2.1-0.3,2.9-0.1c0.8,0.1,1.4,0.4,1.9,0.7c0.5,0.4,0.9,0.8,1.2,1.4c0.3,0.6,0.5,1.1,0.6,1.8
			c0.3,1.5,0.2,2.9-0.2,4.3s-1.1,2.7-2,3.8c-0.9,1.2-2,2.2-3.3,3c-1.3,0.9-2.7,1.5-4.2,1.9c0,0.3,0,0.6,0.1,0.8
			c0,0.3,0.1,0.5,0.1,0.7c0.2,0.8,0.4,1.5,0.6,2c0.3,0.5,0.6,0.9,0.9,1.2c0.3,0.3,0.7,0.4,1.1,0.5s0.8,0,1.3,0
			c0.5-0.1,1-0.3,1.5-0.5c0.5-0.3,1-0.6,1.5-0.9c0.5-0.3,0.9-0.7,1.4-1.2C329.4,19.1,329.8,18.7,330.1,18.3z M320.4,14.5
			c1-0.2,1.9-0.7,2.7-1.3s1.5-1.4,2-2.3c0.5-0.9,0.9-1.9,1.1-3s0.2-2.1,0-3.2c-0.1-0.6-0.3-1.1-0.6-1.5c-0.3-0.3-0.6-0.5-1.1-0.4
			c-0.6,0.1-1.2,0.6-1.7,1.3c-0.5,0.8-0.9,1.7-1.3,2.8c-0.3,1.1-0.6,2.3-0.8,3.7C320.5,11.9,320.4,13.2,320.4,14.5z"/>
	</g>
	<polygon id="XMLID_142_" class="st0" points="330.9,36.5 167.5,71.4 170.3,66.2 331,34.7 	"/>
</g>
</svg>
