<?xml version="1.0" encoding="utf-8"?>
<!-- Generator: Adobe Illustrator 19.0.0, SVG Export Plug-In . SVG Version: 6.00 Build 0)  -->
<svg version="1.1" id="Layer_1" xmlns="http://www.w3.org/2000/svg" xmlns:xlink="http://www.w3.org/1999/xlink" x="0px" y="0px"
	 viewBox="-433 261.5 412.8 246.5" style="enable-background:new -433 261.5 412.8 246.5;" xml:space="preserve">
<style type="text/css">
	.st0{fill:#433621;}
	.st1{fill:#F7C992;}
	.st2{fill:#FBDCB6;}
	.st3{fill:#CD9660;}
	.st4{enable-background:new    ;}
	.st5{fill:#FEF1C5;}
	.st6{fill:#FFFFFF;}
</style>
<g id="XMLID_309_">
	<g id="XMLID_422_">
		<path id="path-2_2_" class="st0" d="M-432.7,457.2c0-10.3,23.3-19.7,60.8-26.5c-9.3,2.8-14.4,5.8-14.4,8.8
			c0,10.5,69.5,28.1,155.2,28.1S-75.9,450-75.9,439.5c0-5.8-19.8-11.4-52.4-15.1c64.3,6.3,108,18.7,108,32.8
			c0,24.6-92.3,50.8-206.1,50.8S-432.7,481.8-432.7,457.2L-432.7,457.2z"/>
		<path id="path-5_4_" class="st1" d="M-433,457.8c0-11.4,23.3-21.1,59.2-26.7c-8.2,2.3-12.8,4.9-12.8,7.6
			c0,10.6,69,28.1,154.1,28.1s154.1-17.5,154.1-28.1c0-5.5-18.9-10.5-49.1-14c62.6,5,106.6,16.7,106.6,30.6
			c0,20.6-93.9,49.3-206.9,49.3S-433,478.4-433,457.8z"/>
		<path id="path-6_2_" class="st2" d="M-389.1,438.8c-1.9,13.8,77.3,33.9,157,33.9c84.4,0.1,159.7-21.7,159.7-34
			c0-5.8-17.7-10.1-52.8-14.2c40.6,5.8,47,9.9,46.9,14.2c-0.3,10.4-78.6,27.8-153.7,27.7c-75.9-0.1-154-16.6-154.5-27.7
			c-0.1-2.5,5.3-5.3,13.9-8.4C-382.4,434-388.6,435.7-389.1,438.8L-389.1,438.8z"/>
		<path id="path-7_2_" class="st3" d="M-429.8,464.8c-0.9-1-1.5-2.1-2.2-3.1c52.8,43.8,168.6,38.1,203.7,38.8
			c32.8,0.7,166.2-3.9,206.7-44.5c4.5,8-50,49.4-206.7,49.4C-348.9,505.4-409.4,487.7-429.8,464.8z"/>
	</g>
	<g class="st4">
		<path class="st5" d="M-343.6,419.8l1.1-57.9l12.6-4.2l-0.5,30.4c1.5-0.4,2.8-1.1,4-2c1.2-0.9,2.3-2.1,3.2-3.3
			c0.9-1.3,1.7-2.7,2.4-4.3c0.6-1.6,1.1-3.2,1.5-4.9c0.3-1.7,0.5-3.4,0.5-5.1c0-1.7-0.1-3.3-0.4-4.9c-0.3-1.6-0.8-3.1-1.5-4.5
			c-0.7-1.4-1.6-2.5-2.7-3.4c-1.1-0.9-2.4-1.6-3.9-1.9c-1.5-0.4-3.2-0.4-5.1,0c-3.6,0.7-6.6,1.8-9.3,3.3s-4.7,3.4-6.3,5.6
			c-1.6,2.2-2.6,4.7-3.1,7.5c-0.5,2.8-0.4,5.9,0.2,9.2c0.2,1.1,0.5,2,0.7,2.7c0.3,0.7,0.5,1.2,0.7,1.6c0.2,0.4,0.4,0.7,0.6,0.9
			c0.2,0.2,0.3,0.4,0.3,0.6c-1.5,0.3-2.9,0.4-4.1,0.3c-1.2-0.1-2.3-0.4-3.2-0.9c-0.9-0.5-1.7-1.3-2.3-2.3c-0.6-1-1.1-2.3-1.4-3.9
			c-0.4-1.9-0.3-3.9,0.2-6c0.5-2,1.3-4,2.4-6c1.1-2,2.6-3.8,4.3-5.7c1.7-1.8,3.6-3.4,5.6-4.9c2.1-1.5,4.3-2.7,6.6-3.8
			c2.3-1.1,4.7-1.8,7.2-2.3c3.6-0.7,6.8-0.8,9.5-0.4c2.8,0.5,5.2,1.3,7.2,2.6c2,1.3,3.6,2.9,4.8,4.8c1.2,1.9,2,4,2.4,6.2
			c0.5,2.8,0.5,5.7-0.1,8.7c-0.6,3-1.8,5.8-3.5,8.5c-1.7,2.7-4,5-6.9,7c-2.8,2-6.2,3.4-10.2,4.1l-0.5,0.1l-0.5,26L-343.6,419.8z"/>
		<path class="st5" d="M-266.1,412c0,3.3-0.4,6-1.2,8.1c-0.8,2.2-1.8,3.9-3.1,5.3c-1.2,1.4-2.6,2.4-4.1,3.1c-1.5,0.7-3,1.2-4.4,1.4
			c-1.3,0.3-2.6,0.3-3.9,0.2c-1.3-0.1-2.4-0.5-3.4-1c-1-0.5-1.9-1.3-2.6-2.2c-0.7-1-1.2-2.2-1.5-3.6c-0.4-1.8-0.2-3.5,0.4-5.1
			c0.6-1.6,1.5-3,2.6-4.3c1.2-1.3,2.5-2.5,4.1-3.6c1.5-1.1,3.1-2,4.7-2.9l0.2-4.9c-0.7,1.2-1.5,2.2-2.3,3c-0.8,0.8-1.6,1.5-2.4,2
			c-0.8,0.5-1.6,0.9-2.4,1.2c-0.8,0.3-1.6,0.5-2.4,0.7c-1.3,0.3-2.6,0.3-3.8,0.1c-1.2-0.2-2.3-0.6-3.3-1.3c-1-0.7-1.9-1.6-2.6-2.9
			s-1.3-2.7-1.6-4.6c-0.2-0.8-0.3-1.7-0.3-2.7c-0.1-1-0.1-2-0.1-3.2l0.5-29.2l12.6-2.4l-0.5,30.9c0,0.8,0,1.5,0.2,2.3
			c0.1,0.5,0.2,1,0.4,1.4s0.4,0.8,0.7,1.1c0.3,0.3,0.6,0.6,1,0.7c0.4,0.1,0.8,0.2,1.3,0.1c0.8-0.2,1.5-0.5,2.1-1
			c0.6-0.5,1.2-1.1,1.6-1.9c0.4-0.8,0.8-1.6,1.1-2.6c0.3-1,0.5-2,0.6-3.1l0.6-29.8l12.6-2.4l-0.8,42.2c1.2-0.7,2.4-1.5,3.3-2.3
			c1-0.9,1.8-1.9,2.5-3c0.7-1.2,1.3-2.5,1.8-4c0.5-1.5,0.8-3.3,1-5.3l3.7-0.7c-0.3,3.1-0.9,5.7-1.7,7.9c-0.8,2.2-1.8,4-2.9,5.5
			s-2.4,2.7-3.7,3.7c-1.3,0.9-2.6,1.7-3.9,2.3L-266.1,412z M-278.7,412.1c-1.1,0.6-2,1.3-3,2c-0.9,0.7-1.7,1.4-2.4,2.2
			c-0.7,0.8-1.2,1.5-1.5,2.3c-0.3,0.8-0.4,1.7-0.2,2.5c0.1,0.3,0.2,0.6,0.4,0.9s0.4,0.6,0.7,0.8c0.3,0.2,0.6,0.4,1.1,0.5
			c0.4,0.1,0.9,0.1,1.4,0c0.9-0.2,1.7-1,2.4-2.4c0.7-1.5,1.1-3.6,1.1-6.3L-278.7,412.1z"/>
		<path class="st5" d="M-216,378.8c-0.8,2.3-1.8,4.6-3,6.8c-1.2,2.2-2.7,4.3-4.3,6.2c-1.7,1.9-3.6,3.5-5.9,4.9
			c-2.2,1.4-4.8,2.4-7.7,2.9c-2.1,0.4-4,0.5-5.8,0.3c-1.8-0.2-3.4-0.7-4.8-1.6c-1.4-0.9-2.6-2.1-3.6-3.8s-1.7-3.7-2.2-6.2
			c-0.3-1.7-0.5-3.7-0.6-5.9c-0.1-2.3,0-4.6,0.3-7.1c0.3-2.5,0.9-4.9,1.6-7.4c0.8-2.5,1.9-4.7,3.3-6.8c1.4-2.1,3.2-3.9,5.3-5.4
			c2.1-1.5,4.6-2.6,7.6-3.1c1.9-0.4,3.6-0.4,4.9-0.2c1.3,0.2,2.5,0.6,3.3,1.3c0.9,0.6,1.6,1.4,2,2.3c0.5,0.9,0.8,1.9,1,2.8
			c0.2,1.1,0.3,2,0.2,2.9c-0.1,0.8-0.3,1.6-0.6,2.2c-0.3,0.6-0.7,1.1-1.3,1.5s-1.1,0.6-1.7,0.7c-1,0.2-2.1,0.1-3.3-0.4
			c0.3-2,0.4-3.8,0.1-5.4c-0.2-1.1-0.6-1.9-1.1-2.5c-0.5-0.6-1.2-0.8-2-0.6c-0.9,0.2-1.7,0.8-2.5,1.8c-0.8,1-1.4,2.3-2,3.8
			c-0.6,1.5-1,3.2-1.4,5.1c-0.4,1.9-0.6,3.9-0.8,5.9c-0.2,2-0.2,4-0.1,5.9c0.1,2,0.3,3.7,0.6,5.4c0.3,1.5,0.7,2.7,1.1,3.6
			c0.5,0.9,1,1.6,1.6,2c0.6,0.4,1.4,0.7,2.2,0.8c0.8,0.1,1.8,0,2.8-0.2c1.7-0.3,3.3-0.9,4.6-1.6c1.3-0.7,2.5-1.6,3.6-2.6
			c1.1-1,2-2.2,2.9-3.5c0.9-1.3,1.8-2.7,2.6-4.1L-216,378.8z"/>
		<path class="st5" d="M-168.3,351.3c-1.4,2.1-3.3,4.1-5.7,5.9c-2.5,1.8-5.2,3.2-8.4,4.4c0.4,4.1,0.4,7.9-0.2,11.4
			c-0.6,3.5-1.6,6.5-3,9.2c-1.4,2.6-3.2,4.8-5.3,6.5c-2.2,1.7-4.6,2.8-7.2,3.3c-2,0.4-3.9,0.5-5.8,0.3c-1.8-0.2-3.5-0.7-4.9-1.5
			c-1.5-0.9-2.7-2.1-3.7-3.7s-1.8-3.7-2.3-6.2c-0.3-1.7-0.5-3.7-0.6-5.9c-0.1-2.2,0.1-4.6,0.4-7.1c0.3-2.5,0.9-4.9,1.7-7.4
			c0.8-2.4,1.9-4.7,3.4-6.8c1.4-2.1,3.2-3.9,5.4-5.4c2.1-1.5,4.7-2.6,7.7-3.1c7.5-1.5,12.1,2.5,13.9,11.8l0,0.1c0.2,0,0.3,0,0.4,0
			c0.1,0,0.3-0.1,0.5-0.1c1-0.2,2.1-0.6,3.2-1.1c1.1-0.5,2.2-1.1,3.3-1.9c1.1-0.7,2.2-1.5,3.2-2.4s1.9-1.7,2.7-2.5L-168.3,351.3z
			 M-189.6,363.3c-1-0.1-1.7-0.4-2.1-1c-0.5-0.6-0.8-1.3-0.9-2.2c-0.2-1.2-0.2-2.3,0.2-3.2c0.3-0.9,0.9-1.6,1.7-2.1
			c-0.2-0.9-0.5-1.7-0.8-2.3c-0.3-0.6-0.6-1.1-0.9-1.5c-0.3-0.4-0.7-0.6-1.1-0.7c-0.4-0.1-0.9-0.1-1.5,0c-1.1,0.2-2,0.8-2.8,1.8
			c-0.8,1-1.5,2.3-2.1,3.8c-0.6,1.5-1.1,3.2-1.5,5.1c-0.4,1.9-0.7,3.8-0.8,5.7c-0.2,1.9-0.2,3.8-0.1,5.6c0.1,1.8,0.2,3.5,0.5,4.9
			c0.3,1.5,0.6,2.6,0.9,3.5c0.3,0.9,0.7,1.6,1.2,2c0.5,0.5,1,0.7,1.6,0.8c0.6,0.1,1.3,0.1,2.2-0.1c1.1-0.2,2-0.9,2.9-2
			c0.9-1.1,1.6-2.6,2.2-4.4c0.6-1.8,1-3.9,1.3-6.2S-189.5,365.9-189.6,363.3z"/>
		<path class="st5" d="M-171.1,386.3l0.8-45.5l12.6-2.4l-0.1,4.7c0.7-1.2,1.5-2.3,2.3-3.1c0.8-0.8,1.6-1.5,2.4-2
			c0.8-0.5,1.6-0.9,2.4-1.2c0.8-0.3,1.5-0.5,2.2-0.6c1.4-0.3,2.7-0.3,4-0.2c1.3,0.1,2.4,0.5,3.4,1.1c1,0.6,1.9,1.5,2.6,2.7
			c0.7,1.2,1.3,2.6,1.6,4.3c0.2,1.2,0.4,2.4,0.4,3.8c0,1.4,0.1,2.8,0,4.3c0,1.5-0.1,2.9-0.2,4.4c-0.1,1.5-0.2,2.9-0.2,4.2
			c-0.1,1.3-0.1,2.6-0.1,3.7c0,1.1,0.1,2.1,0.2,2.9c0.2,1.1,0.6,1.9,1.3,2.5c0.6,0.6,1.6,0.7,3,0.5c1.5-0.3,2.4-0.7,2.8-1.1
			c0.1,1.6,0,3.1-0.4,4.3c-0.4,1.2-0.9,2.3-1.6,3.2c-0.7,0.9-1.6,1.6-2.6,2.2c-1,0.6-2.1,0.9-3.2,1.2c-1.7,0.3-3.1,0.3-4.4,0
			c-1.2-0.3-2.3-0.9-3.2-1.7s-1.6-1.8-2.1-2.9c-0.5-1.1-0.9-2.3-1.1-3.6c-0.3-1.5-0.4-3.2-0.4-5.3c0-2.1,0.1-4.2,0.2-6.3
			c0.1-2.2,0.1-4.3,0.2-6.3c0-2-0.1-3.7-0.3-5.1c-0.6-3-1.9-4.3-4-3.9c-0.8,0.2-1.5,0.5-2.1,1.1c-0.6,0.6-1.1,1.3-1.5,2.1
			c-0.4,0.8-0.8,1.8-1,2.9c-0.3,1.1-0.5,2.2-0.6,3.4l-0.5,29.2L-171.1,386.3z"/>
	</g>
	<g class="st4">
		<path class="st5" d="M-165.6,408.5c0.3,0.5,0.5,1,0.6,1.5c0.1,0.5,0.1,0.9,0,1.3c-0.1,0.4-0.3,0.8-0.6,1.1c-0.3,0.3-0.6,0.6-1,0.8
			c-0.4,0.2-0.8,0.4-1.2,0.5c-0.4,0.1-0.8,0.1-1.2,0.1c-0.4,0-0.9-0.1-1.3-0.1c-0.4,0-0.9-0.1-1.4-0.1s-0.9,0-1.4,0.1
			c-0.4,0.1-0.9,0.2-1.3,0.4c-0.4,0.2-0.9,0.5-1.3,0.8l-0.1,0c-0.2-0.4-0.3-0.8-0.4-1.1c-0.1-0.6-0.1-1.2,0-1.8
			c0.1-0.6,0.4-1.2,0.6-1.8c0.3-0.6,0.6-1.2,1.1-1.8c0.4-0.6,0.8-1.2,1.2-1.8c0.4-0.6,0.8-1.2,1.2-1.8c0.4-0.6,0.7-1.2,1-1.9
			c0.3-0.6,0.5-1.3,0.6-1.9c0.1-0.7,0.1-1.3,0-2c-0.1-0.5-0.2-0.9-0.3-1.2c-0.1-0.4-0.3-0.7-0.5-0.9c-0.2-0.2-0.4-0.4-0.7-0.5
			c-0.3-0.1-0.6-0.1-0.9-0.1c-0.3,0.1-0.6,0.2-0.8,0.3c-0.2,0.2-0.4,0.3-0.5,0.6c-0.1,0.2-0.2,0.5-0.3,0.7c0,0.3,0,0.5,0,0.8
			c0.1,0.6,0.3,1.1,0.7,1.5c0.3,0.4,0.7,0.6,1,0.8l0,0.1c-0.2,0.3-0.5,0.6-0.8,0.8s-0.6,0.4-0.9,0.4c-0.2,0-0.5,0-0.7,0
			c-0.2-0.1-0.5-0.2-0.7-0.4c-0.2-0.2-0.4-0.4-0.6-0.7c-0.2-0.3-0.3-0.7-0.4-1.1c-0.1-0.5-0.1-1,0-1.6c0.1-0.6,0.4-1.1,0.7-1.6
			c0.4-0.5,0.8-0.9,1.5-1.3c0.6-0.4,1.3-0.7,2.2-0.8c0.7-0.1,1.4-0.2,2-0.1c0.6,0.1,1.2,0.3,1.7,0.6c0.5,0.3,0.9,0.7,1.3,1.2
			c0.4,0.5,0.6,1.1,0.7,1.9c0.1,0.6,0.1,1.2,0,1.8c-0.1,0.6-0.3,1.1-0.6,1.7c-0.3,0.5-0.6,1.1-1,1.6c-0.4,0.5-0.8,1-1.2,1.5
			c-0.4,0.5-0.9,1-1.3,1.5c-0.4,0.5-0.9,1-1.3,1.5c-0.4,0.5-0.8,1-1.1,1.5c-0.3,0.5-0.6,1-0.7,1.5c0.3-0.1,0.5-0.2,0.8-0.3
			c0.2-0.1,0.5-0.1,0.7-0.2c0.4-0.1,0.8-0.1,1.2-0.1c0.4,0,0.8,0,1.1,0c0.4,0,0.7,0,1,0c0.3,0,0.6,0,0.9-0.1
			c0.4-0.1,0.8-0.3,1.2-0.5C-166.3,409.4-166,409-165.6,408.5L-165.6,408.5z"/>
		<path class="st5" d="M-156.6,411.4c-1,0.2-1.8,0.2-2.5,0c-0.7-0.2-1.3-0.5-1.8-1c-0.5-0.5-0.9-1.1-1.2-1.8
			c-0.3-0.7-0.5-1.5-0.7-2.4c-0.2-1.2-0.3-2.3-0.4-3.4c0-1.1,0-2.2,0.2-3.2c0.2-1,0.4-2,0.8-2.9c0.3-0.9,0.8-1.7,1.3-2.4
			s1.1-1.3,1.8-1.7c0.7-0.5,1.5-0.8,2.3-0.9c0.8-0.2,1.6-0.2,2.2,0c0.7,0.2,1.2,0.5,1.7,0.9c0.5,0.5,0.9,1,1.3,1.7
			c0.3,0.7,0.6,1.5,0.8,2.4c0.1,0.6,0.2,1.3,0.3,2c0.1,0.7,0.1,1.4,0.1,2.2c0,0.8-0.1,1.5-0.1,2.3c-0.1,0.8-0.2,1.5-0.4,2.3
			c-0.2,0.7-0.5,1.4-0.8,2.1c-0.3,0.7-0.7,1.3-1.1,1.8s-1,1-1.6,1.4C-155.1,411-155.8,411.3-156.6,411.4z M-156.6,393
			c-0.4,0.1-0.8,0.3-1.1,0.7c-0.3,0.4-0.6,0.9-0.8,1.6c-0.2,0.7-0.4,1.4-0.6,2.2c-0.2,0.8-0.2,1.7-0.3,2.7c0,0.9,0,1.9,0,2.9
			c0.1,1,0.2,1.9,0.4,2.9c0.1,0.5,0.2,0.9,0.3,1.4c0.1,0.4,0.3,0.8,0.5,1.2c0.2,0.3,0.4,0.6,0.7,0.7c0.3,0.2,0.6,0.2,0.9,0.2
			c0.4-0.1,0.8-0.3,1.1-0.7c0.3-0.4,0.6-0.9,0.8-1.6s0.4-1.4,0.5-2.2s0.2-1.7,0.2-2.7c0-0.9,0-1.9-0.1-2.9c-0.1-1-0.2-2-0.4-3
			c-0.1-0.5-0.2-1-0.4-1.4c-0.1-0.4-0.3-0.8-0.5-1.1c-0.2-0.3-0.4-0.6-0.6-0.7C-156.1,393-156.3,393-156.6,393z"/>
		<path class="st5" d="M-146.9,409.3l0.3-16.3l-2.4,0.5l0.1-1.2c0.3-0.1,0.7-0.2,1.1-0.3s0.9-0.3,1.4-0.5c0.5-0.2,1-0.5,1.6-0.9
			c0.6-0.4,1.2-0.9,1.9-1.5l-0.4,19.6L-146.9,409.3z"/>
		<path class="st5" d="M-128.5,386.4c0.1,0.3,0,0.7-0.1,1.1c-0.1,0.5-0.3,1-0.5,1.7c-0.2,0.6-0.5,1.3-0.8,2.1
			c-0.3,0.8-0.6,1.5-0.9,2.4c-0.3,0.8-0.6,1.7-0.9,2.5c-0.3,0.9-0.5,1.7-0.7,2.6c-0.2,0.8-0.3,1.7-0.4,2.5c-0.1,0.8,0,1.6,0.1,2.3
			c0.1,0.4,0.2,0.9,0.4,1.3s0.4,0.8,0.6,1.2c-0.3,0.2-0.5,0.4-0.8,0.5s-0.6,0.2-0.8,0.3c-0.4,0.1-0.7,0.1-1.1,0
			c-0.3-0.1-0.6-0.2-0.9-0.4c-0.3-0.2-0.5-0.5-0.7-0.9c-0.2-0.4-0.3-0.8-0.4-1.2c-0.1-0.6-0.1-1.3-0.1-2s0.2-1.4,0.5-2.1
			c0.2-0.7,0.5-1.4,0.8-2.1c0.3-0.7,0.7-1.4,1-2c0.3-0.7,0.7-1.3,1-1.9c0.3-0.6,0.6-1.2,0.9-1.7c0.3-0.5,0.5-0.9,0.6-1.3
			c0.1-0.4,0.2-0.7,0.2-0.9c-0.3,0.2-0.6,0.3-0.8,0.4c-0.2,0.1-0.5,0.2-0.8,0.3c-0.3,0.1-0.6,0.1-0.8,0.1c-0.3,0-0.6,0-0.8,0
			c-0.3,0-0.6,0-0.8,0c-0.3,0-0.6,0-0.9,0.1c-0.5,0.1-0.9,0.3-1.3,0.6s-0.7,0.7-1,1.2l-0.1,0c-0.2-0.2-0.3-0.5-0.4-0.7
			c-0.1-0.3-0.2-0.5-0.2-0.7c-0.1-0.4-0.1-0.9,0-1.3s0.3-0.7,0.5-1.1s0.6-0.6,1-0.8c0.4-0.2,0.9-0.4,1.4-0.5
			c0.4-0.1,0.8-0.1,1.2-0.1c0.4,0,0.8,0,1.2,0.1c0.4,0,0.8,0,1.2,0.1s0.9,0,1.4-0.1c0.4-0.1,1-0.2,1.5-0.4S-129.2,386.6-128.5,386.4
			L-128.5,386.4z"/>
	</g>
	<g id="XMLID_310_">
		<g id="XMLID_328_">
			<path id="XMLID_416_" class="st6" d="M-370,334.4l0.8-14.3l2.3-0.5l-0.9,9.5l2.9-9.9l2-0.4l-0.6,9.4l2.7-9.8l2.3-0.5l-4.6,15
				l-2.3,0.5l0.6-9.4l-2.9,9.8L-370,334.4z"/>
			<path id="XMLID_414_" class="st6" d="M-355.3,331.4l2.7-14.6l5.6-1.1l-0.4,2l-2.9,0.6l-0.7,4l2.1-0.4l-0.4,2.1l-2.1,0.4l-0.8,4.5
				l2.9-0.6l-0.4,2L-355.3,331.4z"/>
			<path id="XMLID_412_" class="st6" d="M-343.7,329l2.7-14.6l2.7-0.6l-2.3,12.6l2.7-0.5l-0.4,2L-343.7,329z"/>
			<path id="XMLID_410_" class="st6" d="M-331.8,321.9l0.9-4.8c0.6-3.5,2.3-5.5,4.9-6c0.6-0.1,1-0.1,1.4-0.1c0.4,0.1,0.7,0.2,1,0.4
				c0.2,0.2,0.4,0.5,0.5,0.9c0.1,0.4,0.2,0.8,0.2,1.3s-0.1,1-0.2,1.6l-0.2,1.3l-2.7,0.5l0.2-1.4c0-0.3,0.1-0.5,0.1-0.7
				c0-0.2,0-0.4,0-0.6c0-0.2,0-0.4-0.1-0.6c0-0.1-0.1-0.2-0.3-0.3c-0.1-0.1-0.3-0.1-0.5-0.1c-0.8,0.2-1.3,1-1.6,2.4l-1.2,6.3
				c-0.3,1.4,0,2.1,0.8,1.9c0.2,0,0.4-0.2,0.6-0.3c0.2-0.2,0.3-0.4,0.5-0.7c0.1-0.3,0.2-0.6,0.3-0.8c0.1-0.3,0.1-0.6,0.2-0.9
				l0.3-1.5l2.7-0.5l-0.2,1.2c-0.1,0.6-0.3,1.1-0.4,1.6c-0.2,0.5-0.4,1-0.6,1.5c-0.3,0.5-0.6,0.9-0.9,1.3c-0.3,0.4-0.7,0.7-1.2,1
				c-0.5,0.3-1,0.5-1.6,0.6s-1.1,0.1-1.5,0s-0.7-0.3-1-0.5c-0.2-0.2-0.4-0.6-0.5-1s-0.2-0.9-0.1-1.3
				C-331.9,323-331.9,322.5-331.8,321.9z"/>
			<path id="XMLID_402_" class="st6" d="M-318,319.1l0.9-4.9c0.6-3.5,2.3-5.5,4.9-6c2.6-0.5,3.6,0.9,3,4.4l-0.9,4.8
				c-0.1,0.6-0.2,1.1-0.4,1.6s-0.4,1-0.7,1.5c-0.3,0.5-0.6,0.9-0.9,1.3c-0.4,0.4-0.8,0.7-1.3,1c-0.5,0.3-1,0.5-1.6,0.6
				s-1.1,0.1-1.5,0.1c-0.4-0.1-0.8-0.2-1-0.5c-0.2-0.2-0.4-0.6-0.5-1c-0.1-0.4-0.2-0.8-0.2-1.3C-318.2,320.3-318.1,319.7-318,319.1z
				 M-312.9,318.8l1.2-6.3c0.3-1.4,0-2.1-0.8-1.9c-0.2,0.1-0.5,0.2-0.7,0.3c-0.2,0.2-0.4,0.4-0.5,0.6c-0.1,0.2-0.2,0.5-0.3,0.7
				c-0.1,0.2-0.1,0.5-0.2,0.7l-1.2,6.3c-0.3,1.4,0,2.1,0.8,1.9C-313.8,321-313.2,320.2-312.9,318.8z"/>
			<path id="XMLID_399_" class="st6" d="M-304.6,321l2.7-14.6l3.3-0.7l-0.4,9.5l3.4-10.1l3.2-0.6l-2.7,14.6l-2,0.4l1.8-10.3
				c-0.3,1.1-0.9,2.9-1.7,5.3c-0.8,2.5-1.4,4.2-1.7,5.3l-2,0.4l0.3-10l-2,10.4L-304.6,321z"/>
			<path id="XMLID_359_" class="st6" d="M-288.6,317.8l2.7-14.6l5.6-1.1l-0.4,2l-2.9,0.6l-0.7,4l2.1-0.4l-0.4,2.1l-2.1,0.4l-0.8,4.5
				l2.9-0.6l-0.4,2L-288.6,317.8z"/>
			<path id="XMLID_338_" class="st6" d="M-267.8,313.6l2.3-12.4l-2,0.4l0.4-2.2l6.7-1.4l-0.4,2.2l-1.9,0.4L-265,313L-267.8,313.6z"
				/>
			<path id="XMLID_331_" class="st6" d="M-256.7,306.7l0.9-4.9c0.6-3.5,2.3-5.5,4.9-6c2.6-0.5,3.6,0.9,3,4.4l-0.9,4.8
				c-0.1,0.6-0.2,1.1-0.4,1.6s-0.4,1-0.7,1.5s-0.6,0.9-0.9,1.3c-0.4,0.4-0.8,0.7-1.3,1c-0.5,0.3-1,0.5-1.6,0.6s-1.1,0.1-1.5,0.1
				c-0.4-0.1-0.8-0.2-1-0.5c-0.2-0.2-0.4-0.6-0.5-1c-0.1-0.4-0.2-0.8-0.2-1.3C-256.8,307.8-256.8,307.2-256.7,306.7z M-251.6,306.3
				l1.2-6.3c0.3-1.4,0-2.1-0.8-1.9c-0.2,0.1-0.5,0.2-0.7,0.3c-0.2,0.2-0.4,0.4-0.5,0.6s-0.2,0.5-0.3,0.7c-0.1,0.2-0.1,0.5-0.2,0.7
				l-1.2,6.3c-0.3,1.4,0,2.1,0.8,1.9C-252.4,308.5-251.9,307.7-251.6,306.3z"/>
		</g>
		<path id="path-5_3_" class="st6" d="M-75.2,263.3l-163.4,34.8l2.8-5.1l160.6-31.5V263.3z M-75.3,267.6v1.8l-163.8,37.5l2.9-5.1
			l160.6-34.3L-75.3,267.6z"/>
	</g>
</g>
</svg>
